%TF.GenerationSoftware,KiCad,Pcbnew,5.1.10*%
%TF.CreationDate,2021-06-24T22:29:26-07:00*%
%TF.ProjectId,weatherstation,77656174-6865-4727-9374-6174696f6e2e,rev?*%
%TF.SameCoordinates,Original*%
%TF.FileFunction,Legend,Top*%
%TF.FilePolarity,Positive*%
%FSLAX46Y46*%
G04 Gerber Fmt 4.6, Leading zero omitted, Abs format (unit mm)*
G04 Created by KiCad (PCBNEW 5.1.10) date 2021-06-24 22:29:26*
%MOMM*%
%LPD*%
G01*
G04 APERTURE LIST*
%ADD10C,0.300000*%
%ADD11C,0.150000*%
%ADD12C,0.120000*%
%ADD13C,0.010000*%
G04 APERTURE END LIST*
D10*
X169017142Y-111061428D02*
X169017142Y-109918571D01*
X168338571Y-108057142D02*
X169481428Y-108057142D01*
X168910000Y-108628571D02*
X168910000Y-107485714D01*
D11*
X163996666Y-112307142D02*
X163996666Y-111830952D01*
X164282380Y-112402380D02*
X163282380Y-112069047D01*
X164282380Y-111735714D01*
X163615714Y-111402380D02*
X164282380Y-111402380D01*
X163710952Y-111402380D02*
X163663333Y-111354761D01*
X163615714Y-111259523D01*
X163615714Y-111116666D01*
X163663333Y-111021428D01*
X163758571Y-110973809D01*
X164282380Y-110973809D01*
X164234761Y-110116666D02*
X164282380Y-110211904D01*
X164282380Y-110402380D01*
X164234761Y-110497619D01*
X164139523Y-110545238D01*
X163758571Y-110545238D01*
X163663333Y-110497619D01*
X163615714Y-110402380D01*
X163615714Y-110211904D01*
X163663333Y-110116666D01*
X163758571Y-110069047D01*
X163853809Y-110069047D01*
X163949047Y-110545238D01*
X164282380Y-109640476D02*
X163615714Y-109640476D01*
X163710952Y-109640476D02*
X163663333Y-109592857D01*
X163615714Y-109497619D01*
X163615714Y-109354761D01*
X163663333Y-109259523D01*
X163758571Y-109211904D01*
X164282380Y-109211904D01*
X163758571Y-109211904D02*
X163663333Y-109164285D01*
X163615714Y-109069047D01*
X163615714Y-108926190D01*
X163663333Y-108830952D01*
X163758571Y-108783333D01*
X164282380Y-108783333D01*
X164282380Y-108164285D02*
X164234761Y-108259523D01*
X164187142Y-108307142D01*
X164091904Y-108354761D01*
X163806190Y-108354761D01*
X163710952Y-108307142D01*
X163663333Y-108259523D01*
X163615714Y-108164285D01*
X163615714Y-108021428D01*
X163663333Y-107926190D01*
X163710952Y-107878571D01*
X163806190Y-107830952D01*
X164091904Y-107830952D01*
X164187142Y-107878571D01*
X164234761Y-107926190D01*
X164282380Y-108021428D01*
X164282380Y-108164285D01*
X164282380Y-107402380D02*
X163615714Y-107402380D01*
X163710952Y-107402380D02*
X163663333Y-107354761D01*
X163615714Y-107259523D01*
X163615714Y-107116666D01*
X163663333Y-107021428D01*
X163758571Y-106973809D01*
X164282380Y-106973809D01*
X163758571Y-106973809D02*
X163663333Y-106926190D01*
X163615714Y-106830952D01*
X163615714Y-106688095D01*
X163663333Y-106592857D01*
X163758571Y-106545238D01*
X164282380Y-106545238D01*
X164234761Y-105688095D02*
X164282380Y-105783333D01*
X164282380Y-105973809D01*
X164234761Y-106069047D01*
X164139523Y-106116666D01*
X163758571Y-106116666D01*
X163663333Y-106069047D01*
X163615714Y-105973809D01*
X163615714Y-105783333D01*
X163663333Y-105688095D01*
X163758571Y-105640476D01*
X163853809Y-105640476D01*
X163949047Y-106116666D01*
X163615714Y-105354761D02*
X163615714Y-104973809D01*
X163282380Y-105211904D02*
X164139523Y-105211904D01*
X164234761Y-105164285D01*
X164282380Y-105069047D01*
X164282380Y-104973809D01*
X164234761Y-104259523D02*
X164282380Y-104354761D01*
X164282380Y-104545238D01*
X164234761Y-104640476D01*
X164139523Y-104688095D01*
X163758571Y-104688095D01*
X163663333Y-104640476D01*
X163615714Y-104545238D01*
X163615714Y-104354761D01*
X163663333Y-104259523D01*
X163758571Y-104211904D01*
X163853809Y-104211904D01*
X163949047Y-104688095D01*
X164282380Y-103783333D02*
X163615714Y-103783333D01*
X163806190Y-103783333D02*
X163710952Y-103735714D01*
X163663333Y-103688095D01*
X163615714Y-103592857D01*
X163615714Y-103497619D01*
D10*
X169017142Y-99631428D02*
X169017142Y-98488571D01*
X168338571Y-94087142D02*
X169481428Y-94087142D01*
X168910000Y-94658571D02*
X168910000Y-93515714D01*
D11*
X164282380Y-101758095D02*
X163282380Y-101758095D01*
X163282380Y-101520000D01*
X163330000Y-101377142D01*
X163425238Y-101281904D01*
X163520476Y-101234285D01*
X163710952Y-101186666D01*
X163853809Y-101186666D01*
X164044285Y-101234285D01*
X164139523Y-101281904D01*
X164234761Y-101377142D01*
X164282380Y-101520000D01*
X164282380Y-101758095D01*
X164282380Y-100758095D02*
X163615714Y-100758095D01*
X163282380Y-100758095D02*
X163330000Y-100805714D01*
X163377619Y-100758095D01*
X163330000Y-100710476D01*
X163282380Y-100758095D01*
X163377619Y-100758095D01*
X164282380Y-100281904D02*
X163615714Y-100281904D01*
X163806190Y-100281904D02*
X163710952Y-100234285D01*
X163663333Y-100186666D01*
X163615714Y-100091428D01*
X163615714Y-99996190D01*
X164234761Y-99281904D02*
X164282380Y-99377142D01*
X164282380Y-99567619D01*
X164234761Y-99662857D01*
X164139523Y-99710476D01*
X163758571Y-99710476D01*
X163663333Y-99662857D01*
X163615714Y-99567619D01*
X163615714Y-99377142D01*
X163663333Y-99281904D01*
X163758571Y-99234285D01*
X163853809Y-99234285D01*
X163949047Y-99710476D01*
X164234761Y-98377142D02*
X164282380Y-98472380D01*
X164282380Y-98662857D01*
X164234761Y-98758095D01*
X164187142Y-98805714D01*
X164091904Y-98853333D01*
X163806190Y-98853333D01*
X163710952Y-98805714D01*
X163663333Y-98758095D01*
X163615714Y-98662857D01*
X163615714Y-98472380D01*
X163663333Y-98377142D01*
X163615714Y-98091428D02*
X163615714Y-97710476D01*
X163282380Y-97948571D02*
X164139523Y-97948571D01*
X164234761Y-97900952D01*
X164282380Y-97805714D01*
X164282380Y-97710476D01*
X164282380Y-97377142D02*
X163615714Y-97377142D01*
X163282380Y-97377142D02*
X163330000Y-97424761D01*
X163377619Y-97377142D01*
X163330000Y-97329523D01*
X163282380Y-97377142D01*
X163377619Y-97377142D01*
X164282380Y-96758095D02*
X164234761Y-96853333D01*
X164187142Y-96900952D01*
X164091904Y-96948571D01*
X163806190Y-96948571D01*
X163710952Y-96900952D01*
X163663333Y-96853333D01*
X163615714Y-96758095D01*
X163615714Y-96615238D01*
X163663333Y-96520000D01*
X163710952Y-96472380D01*
X163806190Y-96424761D01*
X164091904Y-96424761D01*
X164187142Y-96472380D01*
X164234761Y-96520000D01*
X164282380Y-96615238D01*
X164282380Y-96758095D01*
X163615714Y-95996190D02*
X164282380Y-95996190D01*
X163710952Y-95996190D02*
X163663333Y-95948571D01*
X163615714Y-95853333D01*
X163615714Y-95710476D01*
X163663333Y-95615238D01*
X163758571Y-95567619D01*
X164282380Y-95567619D01*
X163282380Y-94472380D02*
X164282380Y-94139047D01*
X163282380Y-93805714D01*
X164282380Y-93043809D02*
X163758571Y-93043809D01*
X163663333Y-93091428D01*
X163615714Y-93186666D01*
X163615714Y-93377142D01*
X163663333Y-93472380D01*
X164234761Y-93043809D02*
X164282380Y-93139047D01*
X164282380Y-93377142D01*
X164234761Y-93472380D01*
X164139523Y-93520000D01*
X164044285Y-93520000D01*
X163949047Y-93472380D01*
X163901428Y-93377142D01*
X163901428Y-93139047D01*
X163853809Y-93043809D01*
X163615714Y-92567619D02*
X164282380Y-92567619D01*
X163710952Y-92567619D02*
X163663333Y-92520000D01*
X163615714Y-92424761D01*
X163615714Y-92281904D01*
X163663333Y-92186666D01*
X163758571Y-92139047D01*
X164282380Y-92139047D01*
X164234761Y-91281904D02*
X164282380Y-91377142D01*
X164282380Y-91567619D01*
X164234761Y-91662857D01*
X164139523Y-91710476D01*
X163758571Y-91710476D01*
X163663333Y-91662857D01*
X163615714Y-91567619D01*
X163615714Y-91377142D01*
X163663333Y-91281904D01*
X163758571Y-91234285D01*
X163853809Y-91234285D01*
X163949047Y-91710476D01*
D10*
X152535714Y-114748571D02*
X152892857Y-116248571D01*
X153178571Y-115177142D01*
X153464285Y-116248571D01*
X153821428Y-114748571D01*
X154392857Y-116248571D02*
X154392857Y-115248571D01*
X154392857Y-114748571D02*
X154321428Y-114820000D01*
X154392857Y-114891428D01*
X154464285Y-114820000D01*
X154392857Y-114748571D01*
X154392857Y-114891428D01*
X155107142Y-115248571D02*
X155107142Y-116248571D01*
X155107142Y-115391428D02*
X155178571Y-115320000D01*
X155321428Y-115248571D01*
X155535714Y-115248571D01*
X155678571Y-115320000D01*
X155750000Y-115462857D01*
X155750000Y-116248571D01*
X157107142Y-116248571D02*
X157107142Y-114748571D01*
X157107142Y-116177142D02*
X156964285Y-116248571D01*
X156678571Y-116248571D01*
X156535714Y-116177142D01*
X156464285Y-116105714D01*
X156392857Y-115962857D01*
X156392857Y-115534285D01*
X156464285Y-115391428D01*
X156535714Y-115320000D01*
X156678571Y-115248571D01*
X156964285Y-115248571D01*
X157107142Y-115320000D01*
X158678571Y-116248571D02*
X158178571Y-115534285D01*
X157821428Y-116248571D02*
X157821428Y-114748571D01*
X158392857Y-114748571D01*
X158535714Y-114820000D01*
X158607142Y-114891428D01*
X158678571Y-115034285D01*
X158678571Y-115248571D01*
X158607142Y-115391428D01*
X158535714Y-115462857D01*
X158392857Y-115534285D01*
X157821428Y-115534285D01*
X159892857Y-116177142D02*
X159750000Y-116248571D01*
X159464285Y-116248571D01*
X159321428Y-116177142D01*
X159250000Y-116034285D01*
X159250000Y-115462857D01*
X159321428Y-115320000D01*
X159464285Y-115248571D01*
X159750000Y-115248571D01*
X159892857Y-115320000D01*
X159964285Y-115462857D01*
X159964285Y-115605714D01*
X159250000Y-115748571D01*
X161250000Y-116248571D02*
X161250000Y-115462857D01*
X161178571Y-115320000D01*
X161035714Y-115248571D01*
X160750000Y-115248571D01*
X160607142Y-115320000D01*
X161250000Y-116177142D02*
X161107142Y-116248571D01*
X160750000Y-116248571D01*
X160607142Y-116177142D01*
X160535714Y-116034285D01*
X160535714Y-115891428D01*
X160607142Y-115748571D01*
X160750000Y-115677142D01*
X161107142Y-115677142D01*
X161250000Y-115605714D01*
X162607142Y-116248571D02*
X162607142Y-114748571D01*
X162607142Y-116177142D02*
X162464285Y-116248571D01*
X162178571Y-116248571D01*
X162035714Y-116177142D01*
X161964285Y-116105714D01*
X161892857Y-115962857D01*
X161892857Y-115534285D01*
X161964285Y-115391428D01*
X162035714Y-115320000D01*
X162178571Y-115248571D01*
X162464285Y-115248571D01*
X162607142Y-115320000D01*
X163892857Y-116177142D02*
X163750000Y-116248571D01*
X163464285Y-116248571D01*
X163321428Y-116177142D01*
X163250000Y-116034285D01*
X163250000Y-115462857D01*
X163321428Y-115320000D01*
X163464285Y-115248571D01*
X163750000Y-115248571D01*
X163892857Y-115320000D01*
X163964285Y-115462857D01*
X163964285Y-115605714D01*
X163250000Y-115748571D01*
X164607142Y-116248571D02*
X164607142Y-115248571D01*
X164607142Y-115534285D02*
X164678571Y-115391428D01*
X164750000Y-115320000D01*
X164892857Y-115248571D01*
X165035714Y-115248571D01*
D12*
%TO.C,J1*%
X123250000Y-116900000D02*
X121920000Y-116900000D01*
X123250000Y-115570000D02*
X123250000Y-116900000D01*
X120650000Y-116900000D02*
X118050000Y-116900000D01*
X120650000Y-114300000D02*
X120650000Y-116900000D01*
X123250000Y-114300000D02*
X120650000Y-114300000D01*
X118050000Y-116900000D02*
X118050000Y-83760000D01*
X123250000Y-114300000D02*
X123250000Y-83760000D01*
X123250000Y-83760000D02*
X118050000Y-83760000D01*
D13*
%TO.C,G\u002A\u002A\u002A*%
G36*
X147429558Y-113164926D02*
G01*
X147575099Y-113200148D01*
X147710317Y-113257214D01*
X147833354Y-113334782D01*
X147942354Y-113431511D01*
X148035460Y-113546060D01*
X148110816Y-113677088D01*
X148155609Y-113788468D01*
X148169013Y-113831136D01*
X148178261Y-113869358D01*
X148184114Y-113909599D01*
X148187333Y-113958325D01*
X148188678Y-114022001D01*
X148188905Y-114071400D01*
X148188619Y-114146285D01*
X148186997Y-114202190D01*
X148183253Y-114245524D01*
X148176601Y-114282700D01*
X148166256Y-114320130D01*
X148153897Y-114357150D01*
X148091113Y-114502327D01*
X148010136Y-114630689D01*
X147912474Y-114741151D01*
X147799638Y-114832628D01*
X147673138Y-114904035D01*
X147534484Y-114954288D01*
X147385186Y-114982302D01*
X147275550Y-114988098D01*
X147120386Y-114976274D01*
X146974091Y-114941428D01*
X146838364Y-114884500D01*
X146714907Y-114806430D01*
X146605423Y-114708156D01*
X146511612Y-114590620D01*
X146487492Y-114552918D01*
X146441860Y-114477799D01*
X146094450Y-114478315D01*
X145514174Y-115484532D01*
X144933898Y-116490750D01*
X144443450Y-116497442D01*
X143981811Y-115697171D01*
X143906380Y-115566606D01*
X143834561Y-115442676D01*
X143767368Y-115327106D01*
X143705816Y-115221627D01*
X143650922Y-115127966D01*
X143603699Y-115047851D01*
X143565164Y-114983011D01*
X143536332Y-114935174D01*
X143518218Y-114906068D01*
X143511911Y-114897316D01*
X143504379Y-114908112D01*
X143485222Y-114939202D01*
X143455457Y-114988851D01*
X143416102Y-115055324D01*
X143368172Y-115136885D01*
X143312687Y-115231800D01*
X143250662Y-115338331D01*
X143183116Y-115454745D01*
X143111065Y-115579306D01*
X143044764Y-115694241D01*
X142585879Y-116490750D01*
X142339914Y-116493814D01*
X142093950Y-116496878D01*
X140933716Y-114484150D01*
X140758183Y-114480761D01*
X140582650Y-114477373D01*
X140550445Y-114534607D01*
X140488698Y-114626051D01*
X140409051Y-114716300D01*
X140318368Y-114798516D01*
X140223512Y-114865859D01*
X140209692Y-114874058D01*
X140083623Y-114932713D01*
X139946290Y-114971102D01*
X139802257Y-114988819D01*
X139656090Y-114985463D01*
X139512353Y-114960630D01*
X139446951Y-114941430D01*
X139311877Y-114883629D01*
X139192018Y-114807427D01*
X139088045Y-114715243D01*
X139000628Y-114609499D01*
X138930437Y-114492616D01*
X138878141Y-114367014D01*
X138844411Y-114235114D01*
X138829916Y-114099337D01*
X138831017Y-114071400D01*
X139263393Y-114071400D01*
X139271321Y-114173243D01*
X139295623Y-114260156D01*
X139338623Y-114338367D01*
X139383765Y-114394217D01*
X139470095Y-114472151D01*
X139564475Y-114526617D01*
X139665413Y-114557144D01*
X139771420Y-114563263D01*
X139869930Y-114547512D01*
X139963001Y-114513936D01*
X140044384Y-114463137D01*
X140117834Y-114394217D01*
X140176306Y-114318307D01*
X140214172Y-114238594D01*
X140233770Y-114148792D01*
X140237887Y-114071400D01*
X140232087Y-113976061D01*
X140212674Y-113896301D01*
X140176626Y-113824851D01*
X140120922Y-113754444D01*
X140094861Y-113727338D01*
X140022850Y-113663451D01*
X139952576Y-113620339D01*
X139876847Y-113595002D01*
X139788474Y-113584435D01*
X139750800Y-113583668D01*
X139655865Y-113589492D01*
X139576259Y-113608966D01*
X139504791Y-113645094D01*
X139434269Y-113700877D01*
X139406738Y-113727338D01*
X139342864Y-113799259D01*
X139299768Y-113869259D01*
X139274490Y-113944447D01*
X139264068Y-114031931D01*
X139263393Y-114071400D01*
X138831017Y-114071400D01*
X138835327Y-113962103D01*
X138861313Y-113825834D01*
X138908544Y-113692949D01*
X138977690Y-113565871D01*
X139042095Y-113478516D01*
X139138221Y-113380850D01*
X139251771Y-113296016D01*
X139376469Y-113227931D01*
X139506040Y-113180513D01*
X139528900Y-113174595D01*
X139612307Y-113160605D01*
X139709902Y-113153973D01*
X139811561Y-113154697D01*
X139907162Y-113162779D01*
X139972699Y-113174595D01*
X140105598Y-113219018D01*
X140232451Y-113284997D01*
X140348972Y-113369329D01*
X140450873Y-113468815D01*
X140533870Y-113580251D01*
X140548289Y-113604507D01*
X140582536Y-113664665D01*
X141001023Y-113668007D01*
X141419509Y-113671350D01*
X141874146Y-114458730D01*
X141949067Y-114588296D01*
X142020399Y-114711291D01*
X142087115Y-114825964D01*
X142148186Y-114930565D01*
X142202583Y-115023343D01*
X142249277Y-115102547D01*
X142287239Y-115166425D01*
X142315442Y-115213227D01*
X142332855Y-115241201D01*
X142338366Y-115248865D01*
X142346112Y-115238594D01*
X142365464Y-115208015D01*
X142395401Y-115158858D01*
X142434901Y-115092854D01*
X142482942Y-115011732D01*
X142538504Y-114917223D01*
X142600565Y-114811058D01*
X142668104Y-114694967D01*
X142740100Y-114570681D01*
X142805092Y-114458056D01*
X143262234Y-113664493D01*
X143514643Y-113667921D01*
X143767052Y-113671350D01*
X143928648Y-113950750D01*
X143970298Y-114022784D01*
X144022330Y-114112807D01*
X144082428Y-114216809D01*
X144148274Y-114330781D01*
X144217553Y-114450712D01*
X144287949Y-114572595D01*
X144357144Y-114692418D01*
X144388683Y-114747041D01*
X144687122Y-115263932D01*
X145148464Y-114464466D01*
X145375287Y-114071400D01*
X146792950Y-114071400D01*
X146793571Y-114133792D01*
X146796347Y-114178462D01*
X146802645Y-114213076D01*
X146813831Y-114245299D01*
X146830283Y-114280787D01*
X146887260Y-114369980D01*
X146962701Y-114447292D01*
X147051404Y-114508476D01*
X147148167Y-114549283D01*
X147164373Y-114553719D01*
X147240470Y-114563386D01*
X147326729Y-114559002D01*
X147412976Y-114541733D01*
X147479187Y-114517559D01*
X147570372Y-114461729D01*
X147649628Y-114387126D01*
X147711203Y-114299385D01*
X147720931Y-114280673D01*
X147737998Y-114243616D01*
X147748890Y-114211421D01*
X147754970Y-114176420D01*
X147757602Y-114130946D01*
X147758150Y-114071400D01*
X147757528Y-114009007D01*
X147754752Y-113964337D01*
X147748454Y-113929723D01*
X147737268Y-113897500D01*
X147720816Y-113862012D01*
X147662523Y-113771011D01*
X147584840Y-113692651D01*
X147492465Y-113631505D01*
X147475457Y-113623066D01*
X147430166Y-113602975D01*
X147392390Y-113590848D01*
X147352437Y-113584726D01*
X147300618Y-113582649D01*
X147274891Y-113582513D01*
X147217406Y-113583278D01*
X147175481Y-113587129D01*
X147139291Y-113596284D01*
X147099009Y-113612961D01*
X147062995Y-113630358D01*
X146967486Y-113689355D01*
X146891685Y-113763089D01*
X146832968Y-113854194D01*
X146826097Y-113868200D01*
X146810670Y-113903704D01*
X146800881Y-113936630D01*
X146795495Y-113974547D01*
X146793277Y-114025022D01*
X146792950Y-114071400D01*
X145375287Y-114071400D01*
X145609805Y-113665000D01*
X146438119Y-113665000D01*
X146501234Y-113568185D01*
X146594515Y-113447454D01*
X146703565Y-113346005D01*
X146826523Y-113264838D01*
X146961529Y-113204950D01*
X147106722Y-113167338D01*
X147260241Y-113153002D01*
X147275550Y-113152887D01*
X147429558Y-113164926D01*
G37*
X147429558Y-113164926D02*
X147575099Y-113200148D01*
X147710317Y-113257214D01*
X147833354Y-113334782D01*
X147942354Y-113431511D01*
X148035460Y-113546060D01*
X148110816Y-113677088D01*
X148155609Y-113788468D01*
X148169013Y-113831136D01*
X148178261Y-113869358D01*
X148184114Y-113909599D01*
X148187333Y-113958325D01*
X148188678Y-114022001D01*
X148188905Y-114071400D01*
X148188619Y-114146285D01*
X148186997Y-114202190D01*
X148183253Y-114245524D01*
X148176601Y-114282700D01*
X148166256Y-114320130D01*
X148153897Y-114357150D01*
X148091113Y-114502327D01*
X148010136Y-114630689D01*
X147912474Y-114741151D01*
X147799638Y-114832628D01*
X147673138Y-114904035D01*
X147534484Y-114954288D01*
X147385186Y-114982302D01*
X147275550Y-114988098D01*
X147120386Y-114976274D01*
X146974091Y-114941428D01*
X146838364Y-114884500D01*
X146714907Y-114806430D01*
X146605423Y-114708156D01*
X146511612Y-114590620D01*
X146487492Y-114552918D01*
X146441860Y-114477799D01*
X146094450Y-114478315D01*
X145514174Y-115484532D01*
X144933898Y-116490750D01*
X144443450Y-116497442D01*
X143981811Y-115697171D01*
X143906380Y-115566606D01*
X143834561Y-115442676D01*
X143767368Y-115327106D01*
X143705816Y-115221627D01*
X143650922Y-115127966D01*
X143603699Y-115047851D01*
X143565164Y-114983011D01*
X143536332Y-114935174D01*
X143518218Y-114906068D01*
X143511911Y-114897316D01*
X143504379Y-114908112D01*
X143485222Y-114939202D01*
X143455457Y-114988851D01*
X143416102Y-115055324D01*
X143368172Y-115136885D01*
X143312687Y-115231800D01*
X143250662Y-115338331D01*
X143183116Y-115454745D01*
X143111065Y-115579306D01*
X143044764Y-115694241D01*
X142585879Y-116490750D01*
X142339914Y-116493814D01*
X142093950Y-116496878D01*
X140933716Y-114484150D01*
X140758183Y-114480761D01*
X140582650Y-114477373D01*
X140550445Y-114534607D01*
X140488698Y-114626051D01*
X140409051Y-114716300D01*
X140318368Y-114798516D01*
X140223512Y-114865859D01*
X140209692Y-114874058D01*
X140083623Y-114932713D01*
X139946290Y-114971102D01*
X139802257Y-114988819D01*
X139656090Y-114985463D01*
X139512353Y-114960630D01*
X139446951Y-114941430D01*
X139311877Y-114883629D01*
X139192018Y-114807427D01*
X139088045Y-114715243D01*
X139000628Y-114609499D01*
X138930437Y-114492616D01*
X138878141Y-114367014D01*
X138844411Y-114235114D01*
X138829916Y-114099337D01*
X138831017Y-114071400D01*
X139263393Y-114071400D01*
X139271321Y-114173243D01*
X139295623Y-114260156D01*
X139338623Y-114338367D01*
X139383765Y-114394217D01*
X139470095Y-114472151D01*
X139564475Y-114526617D01*
X139665413Y-114557144D01*
X139771420Y-114563263D01*
X139869930Y-114547512D01*
X139963001Y-114513936D01*
X140044384Y-114463137D01*
X140117834Y-114394217D01*
X140176306Y-114318307D01*
X140214172Y-114238594D01*
X140233770Y-114148792D01*
X140237887Y-114071400D01*
X140232087Y-113976061D01*
X140212674Y-113896301D01*
X140176626Y-113824851D01*
X140120922Y-113754444D01*
X140094861Y-113727338D01*
X140022850Y-113663451D01*
X139952576Y-113620339D01*
X139876847Y-113595002D01*
X139788474Y-113584435D01*
X139750800Y-113583668D01*
X139655865Y-113589492D01*
X139576259Y-113608966D01*
X139504791Y-113645094D01*
X139434269Y-113700877D01*
X139406738Y-113727338D01*
X139342864Y-113799259D01*
X139299768Y-113869259D01*
X139274490Y-113944447D01*
X139264068Y-114031931D01*
X139263393Y-114071400D01*
X138831017Y-114071400D01*
X138835327Y-113962103D01*
X138861313Y-113825834D01*
X138908544Y-113692949D01*
X138977690Y-113565871D01*
X139042095Y-113478516D01*
X139138221Y-113380850D01*
X139251771Y-113296016D01*
X139376469Y-113227931D01*
X139506040Y-113180513D01*
X139528900Y-113174595D01*
X139612307Y-113160605D01*
X139709902Y-113153973D01*
X139811561Y-113154697D01*
X139907162Y-113162779D01*
X139972699Y-113174595D01*
X140105598Y-113219018D01*
X140232451Y-113284997D01*
X140348972Y-113369329D01*
X140450873Y-113468815D01*
X140533870Y-113580251D01*
X140548289Y-113604507D01*
X140582536Y-113664665D01*
X141001023Y-113668007D01*
X141419509Y-113671350D01*
X141874146Y-114458730D01*
X141949067Y-114588296D01*
X142020399Y-114711291D01*
X142087115Y-114825964D01*
X142148186Y-114930565D01*
X142202583Y-115023343D01*
X142249277Y-115102547D01*
X142287239Y-115166425D01*
X142315442Y-115213227D01*
X142332855Y-115241201D01*
X142338366Y-115248865D01*
X142346112Y-115238594D01*
X142365464Y-115208015D01*
X142395401Y-115158858D01*
X142434901Y-115092854D01*
X142482942Y-115011732D01*
X142538504Y-114917223D01*
X142600565Y-114811058D01*
X142668104Y-114694967D01*
X142740100Y-114570681D01*
X142805092Y-114458056D01*
X143262234Y-113664493D01*
X143514643Y-113667921D01*
X143767052Y-113671350D01*
X143928648Y-113950750D01*
X143970298Y-114022784D01*
X144022330Y-114112807D01*
X144082428Y-114216809D01*
X144148274Y-114330781D01*
X144217553Y-114450712D01*
X144287949Y-114572595D01*
X144357144Y-114692418D01*
X144388683Y-114747041D01*
X144687122Y-115263932D01*
X145148464Y-114464466D01*
X145375287Y-114071400D01*
X146792950Y-114071400D01*
X146793571Y-114133792D01*
X146796347Y-114178462D01*
X146802645Y-114213076D01*
X146813831Y-114245299D01*
X146830283Y-114280787D01*
X146887260Y-114369980D01*
X146962701Y-114447292D01*
X147051404Y-114508476D01*
X147148167Y-114549283D01*
X147164373Y-114553719D01*
X147240470Y-114563386D01*
X147326729Y-114559002D01*
X147412976Y-114541733D01*
X147479187Y-114517559D01*
X147570372Y-114461729D01*
X147649628Y-114387126D01*
X147711203Y-114299385D01*
X147720931Y-114280673D01*
X147737998Y-114243616D01*
X147748890Y-114211421D01*
X147754970Y-114176420D01*
X147757602Y-114130946D01*
X147758150Y-114071400D01*
X147757528Y-114009007D01*
X147754752Y-113964337D01*
X147748454Y-113929723D01*
X147737268Y-113897500D01*
X147720816Y-113862012D01*
X147662523Y-113771011D01*
X147584840Y-113692651D01*
X147492465Y-113631505D01*
X147475457Y-113623066D01*
X147430166Y-113602975D01*
X147392390Y-113590848D01*
X147352437Y-113584726D01*
X147300618Y-113582649D01*
X147274891Y-113582513D01*
X147217406Y-113583278D01*
X147175481Y-113587129D01*
X147139291Y-113596284D01*
X147099009Y-113612961D01*
X147062995Y-113630358D01*
X146967486Y-113689355D01*
X146891685Y-113763089D01*
X146832968Y-113854194D01*
X146826097Y-113868200D01*
X146810670Y-113903704D01*
X146800881Y-113936630D01*
X146795495Y-113974547D01*
X146793277Y-114025022D01*
X146792950Y-114071400D01*
X145375287Y-114071400D01*
X145609805Y-113665000D01*
X146438119Y-113665000D01*
X146501234Y-113568185D01*
X146594515Y-113447454D01*
X146703565Y-113346005D01*
X146826523Y-113264838D01*
X146961529Y-113204950D01*
X147106722Y-113167338D01*
X147260241Y-113153002D01*
X147275550Y-113152887D01*
X147429558Y-113164926D01*
D12*
%TO.C,C1*%
X118695225Y-71275000D02*
X118695225Y-71775000D01*
X118445225Y-71525000D02*
X118945225Y-71525000D01*
X123851000Y-72716000D02*
X123851000Y-73284000D01*
X123811000Y-72482000D02*
X123811000Y-73518000D01*
X123771000Y-72323000D02*
X123771000Y-73677000D01*
X123731000Y-72195000D02*
X123731000Y-73805000D01*
X123691000Y-72085000D02*
X123691000Y-73915000D01*
X123651000Y-71989000D02*
X123651000Y-74011000D01*
X123611000Y-71902000D02*
X123611000Y-74098000D01*
X123571000Y-71822000D02*
X123571000Y-74178000D01*
X123531000Y-74040000D02*
X123531000Y-74251000D01*
X123531000Y-71749000D02*
X123531000Y-71960000D01*
X123491000Y-74040000D02*
X123491000Y-74319000D01*
X123491000Y-71681000D02*
X123491000Y-71960000D01*
X123451000Y-74040000D02*
X123451000Y-74383000D01*
X123451000Y-71617000D02*
X123451000Y-71960000D01*
X123411000Y-74040000D02*
X123411000Y-74443000D01*
X123411000Y-71557000D02*
X123411000Y-71960000D01*
X123371000Y-74040000D02*
X123371000Y-74500000D01*
X123371000Y-71500000D02*
X123371000Y-71960000D01*
X123331000Y-74040000D02*
X123331000Y-74554000D01*
X123331000Y-71446000D02*
X123331000Y-71960000D01*
X123291000Y-74040000D02*
X123291000Y-74605000D01*
X123291000Y-71395000D02*
X123291000Y-71960000D01*
X123251000Y-74040000D02*
X123251000Y-74653000D01*
X123251000Y-71347000D02*
X123251000Y-71960000D01*
X123211000Y-74040000D02*
X123211000Y-74699000D01*
X123211000Y-71301000D02*
X123211000Y-71960000D01*
X123171000Y-74040000D02*
X123171000Y-74743000D01*
X123171000Y-71257000D02*
X123171000Y-71960000D01*
X123131000Y-74040000D02*
X123131000Y-74785000D01*
X123131000Y-71215000D02*
X123131000Y-71960000D01*
X123091000Y-74040000D02*
X123091000Y-74826000D01*
X123091000Y-71174000D02*
X123091000Y-71960000D01*
X123051000Y-74040000D02*
X123051000Y-74864000D01*
X123051000Y-71136000D02*
X123051000Y-71960000D01*
X123011000Y-74040000D02*
X123011000Y-74901000D01*
X123011000Y-71099000D02*
X123011000Y-71960000D01*
X122971000Y-74040000D02*
X122971000Y-74937000D01*
X122971000Y-71063000D02*
X122971000Y-71960000D01*
X122931000Y-74040000D02*
X122931000Y-74971000D01*
X122931000Y-71029000D02*
X122931000Y-71960000D01*
X122891000Y-74040000D02*
X122891000Y-75004000D01*
X122891000Y-70996000D02*
X122891000Y-71960000D01*
X122851000Y-74040000D02*
X122851000Y-75035000D01*
X122851000Y-70965000D02*
X122851000Y-71960000D01*
X122811000Y-74040000D02*
X122811000Y-75065000D01*
X122811000Y-70935000D02*
X122811000Y-71960000D01*
X122771000Y-74040000D02*
X122771000Y-75095000D01*
X122771000Y-70905000D02*
X122771000Y-71960000D01*
X122731000Y-74040000D02*
X122731000Y-75122000D01*
X122731000Y-70878000D02*
X122731000Y-71960000D01*
X122691000Y-74040000D02*
X122691000Y-75149000D01*
X122691000Y-70851000D02*
X122691000Y-71960000D01*
X122651000Y-74040000D02*
X122651000Y-75175000D01*
X122651000Y-70825000D02*
X122651000Y-71960000D01*
X122611000Y-74040000D02*
X122611000Y-75200000D01*
X122611000Y-70800000D02*
X122611000Y-71960000D01*
X122571000Y-74040000D02*
X122571000Y-75224000D01*
X122571000Y-70776000D02*
X122571000Y-71960000D01*
X122531000Y-74040000D02*
X122531000Y-75247000D01*
X122531000Y-70753000D02*
X122531000Y-71960000D01*
X122491000Y-74040000D02*
X122491000Y-75268000D01*
X122491000Y-70732000D02*
X122491000Y-71960000D01*
X122451000Y-74040000D02*
X122451000Y-75290000D01*
X122451000Y-70710000D02*
X122451000Y-71960000D01*
X122411000Y-74040000D02*
X122411000Y-75310000D01*
X122411000Y-70690000D02*
X122411000Y-71960000D01*
X122371000Y-74040000D02*
X122371000Y-75329000D01*
X122371000Y-70671000D02*
X122371000Y-71960000D01*
X122331000Y-74040000D02*
X122331000Y-75348000D01*
X122331000Y-70652000D02*
X122331000Y-71960000D01*
X122291000Y-74040000D02*
X122291000Y-75365000D01*
X122291000Y-70635000D02*
X122291000Y-71960000D01*
X122251000Y-74040000D02*
X122251000Y-75382000D01*
X122251000Y-70618000D02*
X122251000Y-71960000D01*
X122211000Y-74040000D02*
X122211000Y-75398000D01*
X122211000Y-70602000D02*
X122211000Y-71960000D01*
X122171000Y-74040000D02*
X122171000Y-75414000D01*
X122171000Y-70586000D02*
X122171000Y-71960000D01*
X122131000Y-74040000D02*
X122131000Y-75428000D01*
X122131000Y-70572000D02*
X122131000Y-71960000D01*
X122091000Y-74040000D02*
X122091000Y-75442000D01*
X122091000Y-70558000D02*
X122091000Y-71960000D01*
X122051000Y-74040000D02*
X122051000Y-75455000D01*
X122051000Y-70545000D02*
X122051000Y-71960000D01*
X122011000Y-74040000D02*
X122011000Y-75468000D01*
X122011000Y-70532000D02*
X122011000Y-71960000D01*
X121971000Y-74040000D02*
X121971000Y-75480000D01*
X121971000Y-70520000D02*
X121971000Y-71960000D01*
X121930000Y-74040000D02*
X121930000Y-75491000D01*
X121930000Y-70509000D02*
X121930000Y-71960000D01*
X121890000Y-74040000D02*
X121890000Y-75501000D01*
X121890000Y-70499000D02*
X121890000Y-71960000D01*
X121850000Y-74040000D02*
X121850000Y-75511000D01*
X121850000Y-70489000D02*
X121850000Y-71960000D01*
X121810000Y-74040000D02*
X121810000Y-75520000D01*
X121810000Y-70480000D02*
X121810000Y-71960000D01*
X121770000Y-74040000D02*
X121770000Y-75528000D01*
X121770000Y-70472000D02*
X121770000Y-71960000D01*
X121730000Y-74040000D02*
X121730000Y-75536000D01*
X121730000Y-70464000D02*
X121730000Y-71960000D01*
X121690000Y-74040000D02*
X121690000Y-75543000D01*
X121690000Y-70457000D02*
X121690000Y-71960000D01*
X121650000Y-74040000D02*
X121650000Y-75550000D01*
X121650000Y-70450000D02*
X121650000Y-71960000D01*
X121610000Y-74040000D02*
X121610000Y-75556000D01*
X121610000Y-70444000D02*
X121610000Y-71960000D01*
X121570000Y-74040000D02*
X121570000Y-75561000D01*
X121570000Y-70439000D02*
X121570000Y-71960000D01*
X121530000Y-74040000D02*
X121530000Y-75565000D01*
X121530000Y-70435000D02*
X121530000Y-71960000D01*
X121490000Y-74040000D02*
X121490000Y-75569000D01*
X121490000Y-70431000D02*
X121490000Y-71960000D01*
X121450000Y-70427000D02*
X121450000Y-75573000D01*
X121410000Y-70424000D02*
X121410000Y-75576000D01*
X121370000Y-70422000D02*
X121370000Y-75578000D01*
X121330000Y-70421000D02*
X121330000Y-75579000D01*
X121290000Y-70420000D02*
X121290000Y-75580000D01*
X121250000Y-70420000D02*
X121250000Y-75580000D01*
X123870000Y-73000000D02*
G75*
G03*
X123870000Y-73000000I-2620000J0D01*
G01*
%TO.C,C2*%
X157370000Y-87665000D02*
X157370000Y-88370000D01*
X157370000Y-85630000D02*
X157370000Y-86335000D01*
X153130000Y-87665000D02*
X153130000Y-88370000D01*
X153130000Y-85630000D02*
X153130000Y-86335000D01*
X153130000Y-88370000D02*
X157370000Y-88370000D01*
X153130000Y-85630000D02*
X157370000Y-85630000D01*
%TO.C,D1*%
X161870000Y-85530000D02*
X161870000Y-88470000D01*
X162110000Y-85530000D02*
X162110000Y-88470000D01*
X161990000Y-85530000D02*
X161990000Y-88470000D01*
X166530000Y-88470000D02*
X166530000Y-88140000D01*
X161090000Y-88470000D02*
X166530000Y-88470000D01*
X161090000Y-88140000D02*
X161090000Y-88470000D01*
X166530000Y-85530000D02*
X166530000Y-85860000D01*
X161090000Y-85530000D02*
X166530000Y-85530000D01*
X161090000Y-85860000D02*
X161090000Y-85530000D01*
%TO.C,D2*%
X161890000Y-67110000D02*
X161890000Y-70050000D01*
X162130000Y-67110000D02*
X162130000Y-70050000D01*
X162010000Y-67110000D02*
X162010000Y-70050000D01*
X166550000Y-70050000D02*
X166550000Y-69720000D01*
X161110000Y-70050000D02*
X166550000Y-70050000D01*
X161110000Y-69720000D02*
X161110000Y-70050000D01*
X166550000Y-67110000D02*
X166550000Y-67440000D01*
X161110000Y-67110000D02*
X166550000Y-67110000D01*
X161110000Y-67440000D02*
X161110000Y-67110000D01*
%TO.C,D3*%
X120090000Y-78860000D02*
X120090000Y-78530000D01*
X120090000Y-78530000D02*
X125530000Y-78530000D01*
X125530000Y-78530000D02*
X125530000Y-78860000D01*
X120090000Y-81140000D02*
X120090000Y-81470000D01*
X120090000Y-81470000D02*
X125530000Y-81470000D01*
X125530000Y-81470000D02*
X125530000Y-81140000D01*
X120990000Y-78530000D02*
X120990000Y-81470000D01*
X121110000Y-78530000D02*
X121110000Y-81470000D01*
X120870000Y-78530000D02*
X120870000Y-81470000D01*
%TO.C,D4*%
X126725000Y-71140000D02*
X129815000Y-71140000D01*
X130770000Y-68580000D02*
G75*
G03*
X130770000Y-68580000I-2500000J0D01*
G01*
X128270462Y-65590000D02*
G75*
G03*
X126725170Y-71140000I-462J-2990000D01*
G01*
X128269538Y-65590000D02*
G75*
G02*
X129814830Y-71140000I462J-2990000D01*
G01*
%TO.C,J2*%
X165040000Y-111820000D02*
X167700000Y-111820000D01*
X165040000Y-109220000D02*
X165040000Y-111820000D01*
X167700000Y-109220000D02*
X167700000Y-111820000D01*
X165040000Y-109220000D02*
X167700000Y-109220000D01*
X165040000Y-107950000D02*
X165040000Y-106620000D01*
X165040000Y-106620000D02*
X166370000Y-106620000D01*
%TO.C,J3*%
X151670000Y-71670000D02*
X153000000Y-71670000D01*
X151670000Y-73000000D02*
X151670000Y-71670000D01*
X151670000Y-74270000D02*
X154330000Y-74270000D01*
X154330000Y-74270000D02*
X154330000Y-76870000D01*
X151670000Y-74270000D02*
X151670000Y-76870000D01*
X151670000Y-76870000D02*
X154330000Y-76870000D01*
%TO.C,J4*%
X124400000Y-94040000D02*
X127060000Y-94040000D01*
X124400000Y-91440000D02*
X124400000Y-94040000D01*
X127060000Y-91440000D02*
X127060000Y-94040000D01*
X124400000Y-91440000D02*
X127060000Y-91440000D01*
X124400000Y-90170000D02*
X124400000Y-88840000D01*
X124400000Y-88840000D02*
X125730000Y-88840000D01*
%TO.C,J5*%
X124400000Y-96460000D02*
X125730000Y-96460000D01*
X124400000Y-97790000D02*
X124400000Y-96460000D01*
X124400000Y-99060000D02*
X127060000Y-99060000D01*
X127060000Y-99060000D02*
X127060000Y-101660000D01*
X124400000Y-99060000D02*
X124400000Y-101660000D01*
X124400000Y-101660000D02*
X127060000Y-101660000D01*
%TO.C,J6*%
X124400000Y-104080000D02*
X125730000Y-104080000D01*
X124400000Y-105410000D02*
X124400000Y-104080000D01*
X124400000Y-106680000D02*
X127060000Y-106680000D01*
X127060000Y-106680000D02*
X127060000Y-109280000D01*
X124400000Y-106680000D02*
X124400000Y-109280000D01*
X124400000Y-109280000D02*
X127060000Y-109280000D01*
%TO.C,J7*%
X124400000Y-116900000D02*
X127060000Y-116900000D01*
X124400000Y-114300000D02*
X124400000Y-116900000D01*
X127060000Y-114300000D02*
X127060000Y-116900000D01*
X124400000Y-114300000D02*
X127060000Y-114300000D01*
X124400000Y-113030000D02*
X124400000Y-111700000D01*
X124400000Y-111700000D02*
X125730000Y-111700000D01*
%TO.C,J8*%
X161670000Y-71670000D02*
X163000000Y-71670000D01*
X161670000Y-73000000D02*
X161670000Y-71670000D01*
X161670000Y-74270000D02*
X164330000Y-74270000D01*
X164330000Y-74270000D02*
X164330000Y-76870000D01*
X161670000Y-74270000D02*
X161670000Y-76870000D01*
X161670000Y-76870000D02*
X164330000Y-76870000D01*
%TO.C,J9*%
X135950000Y-116900000D02*
X135950000Y-114240000D01*
X133350000Y-116900000D02*
X135950000Y-116900000D01*
X133350000Y-114240000D02*
X135950000Y-114240000D01*
X133350000Y-116900000D02*
X133350000Y-114240000D01*
X132080000Y-116900000D02*
X130750000Y-116900000D01*
X130750000Y-116900000D02*
X130750000Y-115570000D01*
%TO.C,J10*%
X165040000Y-92650000D02*
X166370000Y-92650000D01*
X165040000Y-93980000D02*
X165040000Y-92650000D01*
X165040000Y-95250000D02*
X167700000Y-95250000D01*
X167700000Y-95250000D02*
X167700000Y-100390000D01*
X165040000Y-95250000D02*
X165040000Y-100390000D01*
X165040000Y-100390000D02*
X167700000Y-100390000D01*
%TO.C,R1*%
X163120000Y-81000000D02*
X162350000Y-81000000D01*
X155040000Y-81000000D02*
X155810000Y-81000000D01*
X162350000Y-79630000D02*
X155810000Y-79630000D01*
X162350000Y-82370000D02*
X162350000Y-79630000D01*
X155810000Y-82370000D02*
X162350000Y-82370000D01*
X155810000Y-79630000D02*
X155810000Y-82370000D01*
%TO.C,R2*%
X153810000Y-91630000D02*
X153810000Y-94370000D01*
X153810000Y-94370000D02*
X160350000Y-94370000D01*
X160350000Y-94370000D02*
X160350000Y-91630000D01*
X160350000Y-91630000D02*
X153810000Y-91630000D01*
X153040000Y-93000000D02*
X153810000Y-93000000D01*
X161120000Y-93000000D02*
X160350000Y-93000000D01*
%TO.C,R3*%
X153810000Y-97630000D02*
X153810000Y-100370000D01*
X153810000Y-100370000D02*
X160350000Y-100370000D01*
X160350000Y-100370000D02*
X160350000Y-97630000D01*
X160350000Y-97630000D02*
X153810000Y-97630000D01*
X153040000Y-99000000D02*
X153810000Y-99000000D01*
X161120000Y-99000000D02*
X160350000Y-99000000D01*
%TO.C,R4*%
X148120000Y-74000000D02*
X147350000Y-74000000D01*
X140040000Y-74000000D02*
X140810000Y-74000000D01*
X147350000Y-72630000D02*
X140810000Y-72630000D01*
X147350000Y-75370000D02*
X147350000Y-72630000D01*
X140810000Y-75370000D02*
X147350000Y-75370000D01*
X140810000Y-72630000D02*
X140810000Y-75370000D01*
%TO.C,R5*%
X150120000Y-83000000D02*
X149350000Y-83000000D01*
X142040000Y-83000000D02*
X142810000Y-83000000D01*
X149350000Y-81630000D02*
X142810000Y-81630000D01*
X149350000Y-84370000D02*
X149350000Y-81630000D01*
X142810000Y-84370000D02*
X149350000Y-84370000D01*
X142810000Y-81630000D02*
X142810000Y-84370000D01*
%TO.C,R6*%
X127810000Y-72630000D02*
X127810000Y-75370000D01*
X127810000Y-75370000D02*
X134350000Y-75370000D01*
X134350000Y-75370000D02*
X134350000Y-72630000D01*
X134350000Y-72630000D02*
X127810000Y-72630000D01*
X127040000Y-74000000D02*
X127810000Y-74000000D01*
X135120000Y-74000000D02*
X134350000Y-74000000D01*
%TO.C,R7*%
X160120000Y-111000000D02*
X159350000Y-111000000D01*
X152040000Y-111000000D02*
X152810000Y-111000000D01*
X159350000Y-109630000D02*
X152810000Y-109630000D01*
X159350000Y-112370000D02*
X159350000Y-109630000D01*
X152810000Y-112370000D02*
X159350000Y-112370000D01*
X152810000Y-109630000D02*
X152810000Y-112370000D01*
%TO.C,R8*%
X142810000Y-103630000D02*
X142810000Y-106370000D01*
X142810000Y-106370000D02*
X149350000Y-106370000D01*
X149350000Y-106370000D02*
X149350000Y-103630000D01*
X149350000Y-103630000D02*
X142810000Y-103630000D01*
X142040000Y-105000000D02*
X142810000Y-105000000D01*
X150120000Y-105000000D02*
X149350000Y-105000000D01*
%TO.C,R9*%
X143120000Y-68000000D02*
X142350000Y-68000000D01*
X135040000Y-68000000D02*
X135810000Y-68000000D01*
X142350000Y-66630000D02*
X135810000Y-66630000D01*
X142350000Y-69370000D02*
X142350000Y-66630000D01*
X135810000Y-69370000D02*
X142350000Y-69370000D01*
X135810000Y-66630000D02*
X135810000Y-69370000D01*
%TO.C,R10*%
X148810000Y-67210000D02*
X148810000Y-69950000D01*
X148810000Y-69950000D02*
X155350000Y-69950000D01*
X155350000Y-69950000D02*
X155350000Y-67210000D01*
X155350000Y-67210000D02*
X148810000Y-67210000D01*
X148040000Y-68580000D02*
X148810000Y-68580000D01*
X156120000Y-68580000D02*
X155350000Y-68580000D01*
%TO.C,U1*%
X136460000Y-78670000D02*
X134810000Y-78670000D01*
X136460000Y-88950000D02*
X136460000Y-78670000D01*
X131160000Y-88950000D02*
X136460000Y-88950000D01*
X131160000Y-78670000D02*
X131160000Y-88950000D01*
X132810000Y-78670000D02*
X131160000Y-78670000D01*
X134810000Y-78670000D02*
G75*
G02*
X132810000Y-78670000I-1000000J0D01*
G01*
%TO.C,U2*%
X143810000Y-89670000D02*
X142160000Y-89670000D01*
X142160000Y-89670000D02*
X142160000Y-99950000D01*
X142160000Y-99950000D02*
X147460000Y-99950000D01*
X147460000Y-99950000D02*
X147460000Y-89670000D01*
X147460000Y-89670000D02*
X145810000Y-89670000D01*
X145810000Y-89670000D02*
G75*
G02*
X143810000Y-89670000I-1000000J0D01*
G01*
%TO.C,U3*%
X136460000Y-91670000D02*
X134810000Y-91670000D01*
X136460000Y-112110000D02*
X136460000Y-91670000D01*
X131160000Y-112110000D02*
X136460000Y-112110000D01*
X131160000Y-91670000D02*
X131160000Y-112110000D01*
X132810000Y-91670000D02*
X131160000Y-91670000D01*
X134810000Y-91670000D02*
G75*
G02*
X132810000Y-91670000I-1000000J0D01*
G01*
%TO.C,J1*%
D11*
X120316666Y-82002380D02*
X120316666Y-82716666D01*
X120269047Y-82859523D01*
X120173809Y-82954761D01*
X120030952Y-83002380D01*
X119935714Y-83002380D01*
X121316666Y-83002380D02*
X120745238Y-83002380D01*
X121030952Y-83002380D02*
X121030952Y-82002380D01*
X120935714Y-82145238D01*
X120840476Y-82240476D01*
X120745238Y-82288095D01*
%TO.C,C1*%
X121083333Y-69607142D02*
X121035714Y-69654761D01*
X120892857Y-69702380D01*
X120797619Y-69702380D01*
X120654761Y-69654761D01*
X120559523Y-69559523D01*
X120511904Y-69464285D01*
X120464285Y-69273809D01*
X120464285Y-69130952D01*
X120511904Y-68940476D01*
X120559523Y-68845238D01*
X120654761Y-68750000D01*
X120797619Y-68702380D01*
X120892857Y-68702380D01*
X121035714Y-68750000D01*
X121083333Y-68797619D01*
X122035714Y-69702380D02*
X121464285Y-69702380D01*
X121750000Y-69702380D02*
X121750000Y-68702380D01*
X121654761Y-68845238D01*
X121559523Y-68940476D01*
X121464285Y-68988095D01*
%TO.C,C2*%
X155083333Y-84857142D02*
X155035714Y-84904761D01*
X154892857Y-84952380D01*
X154797619Y-84952380D01*
X154654761Y-84904761D01*
X154559523Y-84809523D01*
X154511904Y-84714285D01*
X154464285Y-84523809D01*
X154464285Y-84380952D01*
X154511904Y-84190476D01*
X154559523Y-84095238D01*
X154654761Y-84000000D01*
X154797619Y-83952380D01*
X154892857Y-83952380D01*
X155035714Y-84000000D01*
X155083333Y-84047619D01*
X155464285Y-84047619D02*
X155511904Y-84000000D01*
X155607142Y-83952380D01*
X155845238Y-83952380D01*
X155940476Y-84000000D01*
X155988095Y-84047619D01*
X156035714Y-84142857D01*
X156035714Y-84238095D01*
X155988095Y-84380952D01*
X155416666Y-84952380D01*
X156035714Y-84952380D01*
%TO.C,D1*%
X163071904Y-84982380D02*
X163071904Y-83982380D01*
X163310000Y-83982380D01*
X163452857Y-84030000D01*
X163548095Y-84125238D01*
X163595714Y-84220476D01*
X163643333Y-84410952D01*
X163643333Y-84553809D01*
X163595714Y-84744285D01*
X163548095Y-84839523D01*
X163452857Y-84934761D01*
X163310000Y-84982380D01*
X163071904Y-84982380D01*
X164595714Y-84982380D02*
X164024285Y-84982380D01*
X164310000Y-84982380D02*
X164310000Y-83982380D01*
X164214761Y-84125238D01*
X164119523Y-84220476D01*
X164024285Y-84268095D01*
%TO.C,D2*%
X163091904Y-66562380D02*
X163091904Y-65562380D01*
X163330000Y-65562380D01*
X163472857Y-65610000D01*
X163568095Y-65705238D01*
X163615714Y-65800476D01*
X163663333Y-65990952D01*
X163663333Y-66133809D01*
X163615714Y-66324285D01*
X163568095Y-66419523D01*
X163472857Y-66514761D01*
X163330000Y-66562380D01*
X163091904Y-66562380D01*
X164044285Y-65657619D02*
X164091904Y-65610000D01*
X164187142Y-65562380D01*
X164425238Y-65562380D01*
X164520476Y-65610000D01*
X164568095Y-65657619D01*
X164615714Y-65752857D01*
X164615714Y-65848095D01*
X164568095Y-65990952D01*
X163996666Y-66562380D01*
X164615714Y-66562380D01*
%TO.C,D3*%
X122071904Y-77982380D02*
X122071904Y-76982380D01*
X122310000Y-76982380D01*
X122452857Y-77030000D01*
X122548095Y-77125238D01*
X122595714Y-77220476D01*
X122643333Y-77410952D01*
X122643333Y-77553809D01*
X122595714Y-77744285D01*
X122548095Y-77839523D01*
X122452857Y-77934761D01*
X122310000Y-77982380D01*
X122071904Y-77982380D01*
X122976666Y-76982380D02*
X123595714Y-76982380D01*
X123262380Y-77363333D01*
X123405238Y-77363333D01*
X123500476Y-77410952D01*
X123548095Y-77458571D01*
X123595714Y-77553809D01*
X123595714Y-77791904D01*
X123548095Y-77887142D01*
X123500476Y-77934761D01*
X123405238Y-77982380D01*
X123119523Y-77982380D01*
X123024285Y-77934761D01*
X122976666Y-77887142D01*
%TO.C,D4*%
X124762380Y-69318095D02*
X123762380Y-69318095D01*
X123762380Y-69080000D01*
X123810000Y-68937142D01*
X123905238Y-68841904D01*
X124000476Y-68794285D01*
X124190952Y-68746666D01*
X124333809Y-68746666D01*
X124524285Y-68794285D01*
X124619523Y-68841904D01*
X124714761Y-68937142D01*
X124762380Y-69080000D01*
X124762380Y-69318095D01*
X124095714Y-67889523D02*
X124762380Y-67889523D01*
X123714761Y-68127619D02*
X124429047Y-68365714D01*
X124429047Y-67746666D01*
%TO.C,J2*%
X166036666Y-105072380D02*
X166036666Y-105786666D01*
X165989047Y-105929523D01*
X165893809Y-106024761D01*
X165750952Y-106072380D01*
X165655714Y-106072380D01*
X166465238Y-105167619D02*
X166512857Y-105120000D01*
X166608095Y-105072380D01*
X166846190Y-105072380D01*
X166941428Y-105120000D01*
X166989047Y-105167619D01*
X167036666Y-105262857D01*
X167036666Y-105358095D01*
X166989047Y-105500952D01*
X166417619Y-106072380D01*
X167036666Y-106072380D01*
%TO.C,J3*%
X152666666Y-70122380D02*
X152666666Y-70836666D01*
X152619047Y-70979523D01*
X152523809Y-71074761D01*
X152380952Y-71122380D01*
X152285714Y-71122380D01*
X153047619Y-70122380D02*
X153666666Y-70122380D01*
X153333333Y-70503333D01*
X153476190Y-70503333D01*
X153571428Y-70550952D01*
X153619047Y-70598571D01*
X153666666Y-70693809D01*
X153666666Y-70931904D01*
X153619047Y-71027142D01*
X153571428Y-71074761D01*
X153476190Y-71122380D01*
X153190476Y-71122380D01*
X153095238Y-71074761D01*
X153047619Y-71027142D01*
%TO.C,J4*%
X125396666Y-87292380D02*
X125396666Y-88006666D01*
X125349047Y-88149523D01*
X125253809Y-88244761D01*
X125110952Y-88292380D01*
X125015714Y-88292380D01*
X126301428Y-87625714D02*
X126301428Y-88292380D01*
X126063333Y-87244761D02*
X125825238Y-87959047D01*
X126444285Y-87959047D01*
%TO.C,J5*%
X125396666Y-94912380D02*
X125396666Y-95626666D01*
X125349047Y-95769523D01*
X125253809Y-95864761D01*
X125110952Y-95912380D01*
X125015714Y-95912380D01*
X126349047Y-94912380D02*
X125872857Y-94912380D01*
X125825238Y-95388571D01*
X125872857Y-95340952D01*
X125968095Y-95293333D01*
X126206190Y-95293333D01*
X126301428Y-95340952D01*
X126349047Y-95388571D01*
X126396666Y-95483809D01*
X126396666Y-95721904D01*
X126349047Y-95817142D01*
X126301428Y-95864761D01*
X126206190Y-95912380D01*
X125968095Y-95912380D01*
X125872857Y-95864761D01*
X125825238Y-95817142D01*
%TO.C,J6*%
X125396666Y-102532380D02*
X125396666Y-103246666D01*
X125349047Y-103389523D01*
X125253809Y-103484761D01*
X125110952Y-103532380D01*
X125015714Y-103532380D01*
X126301428Y-102532380D02*
X126110952Y-102532380D01*
X126015714Y-102580000D01*
X125968095Y-102627619D01*
X125872857Y-102770476D01*
X125825238Y-102960952D01*
X125825238Y-103341904D01*
X125872857Y-103437142D01*
X125920476Y-103484761D01*
X126015714Y-103532380D01*
X126206190Y-103532380D01*
X126301428Y-103484761D01*
X126349047Y-103437142D01*
X126396666Y-103341904D01*
X126396666Y-103103809D01*
X126349047Y-103008571D01*
X126301428Y-102960952D01*
X126206190Y-102913333D01*
X126015714Y-102913333D01*
X125920476Y-102960952D01*
X125872857Y-103008571D01*
X125825238Y-103103809D01*
%TO.C,J7*%
X125396666Y-110152380D02*
X125396666Y-110866666D01*
X125349047Y-111009523D01*
X125253809Y-111104761D01*
X125110952Y-111152380D01*
X125015714Y-111152380D01*
X125777619Y-110152380D02*
X126444285Y-110152380D01*
X126015714Y-111152380D01*
%TO.C,J8*%
X162666666Y-70122380D02*
X162666666Y-70836666D01*
X162619047Y-70979523D01*
X162523809Y-71074761D01*
X162380952Y-71122380D01*
X162285714Y-71122380D01*
X163285714Y-70550952D02*
X163190476Y-70503333D01*
X163142857Y-70455714D01*
X163095238Y-70360476D01*
X163095238Y-70312857D01*
X163142857Y-70217619D01*
X163190476Y-70170000D01*
X163285714Y-70122380D01*
X163476190Y-70122380D01*
X163571428Y-70170000D01*
X163619047Y-70217619D01*
X163666666Y-70312857D01*
X163666666Y-70360476D01*
X163619047Y-70455714D01*
X163571428Y-70503333D01*
X163476190Y-70550952D01*
X163285714Y-70550952D01*
X163190476Y-70598571D01*
X163142857Y-70646190D01*
X163095238Y-70741428D01*
X163095238Y-70931904D01*
X163142857Y-71027142D01*
X163190476Y-71074761D01*
X163285714Y-71122380D01*
X163476190Y-71122380D01*
X163571428Y-71074761D01*
X163619047Y-71027142D01*
X163666666Y-70931904D01*
X163666666Y-70741428D01*
X163619047Y-70646190D01*
X163571428Y-70598571D01*
X163476190Y-70550952D01*
%TO.C,J9*%
X129202380Y-115903333D02*
X129916666Y-115903333D01*
X130059523Y-115950952D01*
X130154761Y-116046190D01*
X130202380Y-116189047D01*
X130202380Y-116284285D01*
X130202380Y-115379523D02*
X130202380Y-115189047D01*
X130154761Y-115093809D01*
X130107142Y-115046190D01*
X129964285Y-114950952D01*
X129773809Y-114903333D01*
X129392857Y-114903333D01*
X129297619Y-114950952D01*
X129250000Y-114998571D01*
X129202380Y-115093809D01*
X129202380Y-115284285D01*
X129250000Y-115379523D01*
X129297619Y-115427142D01*
X129392857Y-115474761D01*
X129630952Y-115474761D01*
X129726190Y-115427142D01*
X129773809Y-115379523D01*
X129821428Y-115284285D01*
X129821428Y-115093809D01*
X129773809Y-114998571D01*
X129726190Y-114950952D01*
X129630952Y-114903333D01*
%TO.C,J10*%
X165560476Y-91102380D02*
X165560476Y-91816666D01*
X165512857Y-91959523D01*
X165417619Y-92054761D01*
X165274761Y-92102380D01*
X165179523Y-92102380D01*
X166560476Y-92102380D02*
X165989047Y-92102380D01*
X166274761Y-92102380D02*
X166274761Y-91102380D01*
X166179523Y-91245238D01*
X166084285Y-91340476D01*
X165989047Y-91388095D01*
X167179523Y-91102380D02*
X167274761Y-91102380D01*
X167370000Y-91150000D01*
X167417619Y-91197619D01*
X167465238Y-91292857D01*
X167512857Y-91483333D01*
X167512857Y-91721428D01*
X167465238Y-91911904D01*
X167417619Y-92007142D01*
X167370000Y-92054761D01*
X167274761Y-92102380D01*
X167179523Y-92102380D01*
X167084285Y-92054761D01*
X167036666Y-92007142D01*
X166989047Y-91911904D01*
X166941428Y-91721428D01*
X166941428Y-91483333D01*
X166989047Y-91292857D01*
X167036666Y-91197619D01*
X167084285Y-91150000D01*
X167179523Y-91102380D01*
%TO.C,R1*%
X158913333Y-79082380D02*
X158580000Y-78606190D01*
X158341904Y-79082380D02*
X158341904Y-78082380D01*
X158722857Y-78082380D01*
X158818095Y-78130000D01*
X158865714Y-78177619D01*
X158913333Y-78272857D01*
X158913333Y-78415714D01*
X158865714Y-78510952D01*
X158818095Y-78558571D01*
X158722857Y-78606190D01*
X158341904Y-78606190D01*
X159865714Y-79082380D02*
X159294285Y-79082380D01*
X159580000Y-79082380D02*
X159580000Y-78082380D01*
X159484761Y-78225238D01*
X159389523Y-78320476D01*
X159294285Y-78368095D01*
%TO.C,R2*%
X156913333Y-91082380D02*
X156580000Y-90606190D01*
X156341904Y-91082380D02*
X156341904Y-90082380D01*
X156722857Y-90082380D01*
X156818095Y-90130000D01*
X156865714Y-90177619D01*
X156913333Y-90272857D01*
X156913333Y-90415714D01*
X156865714Y-90510952D01*
X156818095Y-90558571D01*
X156722857Y-90606190D01*
X156341904Y-90606190D01*
X157294285Y-90177619D02*
X157341904Y-90130000D01*
X157437142Y-90082380D01*
X157675238Y-90082380D01*
X157770476Y-90130000D01*
X157818095Y-90177619D01*
X157865714Y-90272857D01*
X157865714Y-90368095D01*
X157818095Y-90510952D01*
X157246666Y-91082380D01*
X157865714Y-91082380D01*
%TO.C,R3*%
X156913333Y-97082380D02*
X156580000Y-96606190D01*
X156341904Y-97082380D02*
X156341904Y-96082380D01*
X156722857Y-96082380D01*
X156818095Y-96130000D01*
X156865714Y-96177619D01*
X156913333Y-96272857D01*
X156913333Y-96415714D01*
X156865714Y-96510952D01*
X156818095Y-96558571D01*
X156722857Y-96606190D01*
X156341904Y-96606190D01*
X157246666Y-96082380D02*
X157865714Y-96082380D01*
X157532380Y-96463333D01*
X157675238Y-96463333D01*
X157770476Y-96510952D01*
X157818095Y-96558571D01*
X157865714Y-96653809D01*
X157865714Y-96891904D01*
X157818095Y-96987142D01*
X157770476Y-97034761D01*
X157675238Y-97082380D01*
X157389523Y-97082380D01*
X157294285Y-97034761D01*
X157246666Y-96987142D01*
%TO.C,R4*%
X143913333Y-72082380D02*
X143580000Y-71606190D01*
X143341904Y-72082380D02*
X143341904Y-71082380D01*
X143722857Y-71082380D01*
X143818095Y-71130000D01*
X143865714Y-71177619D01*
X143913333Y-71272857D01*
X143913333Y-71415714D01*
X143865714Y-71510952D01*
X143818095Y-71558571D01*
X143722857Y-71606190D01*
X143341904Y-71606190D01*
X144770476Y-71415714D02*
X144770476Y-72082380D01*
X144532380Y-71034761D02*
X144294285Y-71749047D01*
X144913333Y-71749047D01*
%TO.C,R5*%
X145913333Y-81082380D02*
X145580000Y-80606190D01*
X145341904Y-81082380D02*
X145341904Y-80082380D01*
X145722857Y-80082380D01*
X145818095Y-80130000D01*
X145865714Y-80177619D01*
X145913333Y-80272857D01*
X145913333Y-80415714D01*
X145865714Y-80510952D01*
X145818095Y-80558571D01*
X145722857Y-80606190D01*
X145341904Y-80606190D01*
X146818095Y-80082380D02*
X146341904Y-80082380D01*
X146294285Y-80558571D01*
X146341904Y-80510952D01*
X146437142Y-80463333D01*
X146675238Y-80463333D01*
X146770476Y-80510952D01*
X146818095Y-80558571D01*
X146865714Y-80653809D01*
X146865714Y-80891904D01*
X146818095Y-80987142D01*
X146770476Y-81034761D01*
X146675238Y-81082380D01*
X146437142Y-81082380D01*
X146341904Y-81034761D01*
X146294285Y-80987142D01*
%TO.C,R6*%
X130913333Y-72082380D02*
X130580000Y-71606190D01*
X130341904Y-72082380D02*
X130341904Y-71082380D01*
X130722857Y-71082380D01*
X130818095Y-71130000D01*
X130865714Y-71177619D01*
X130913333Y-71272857D01*
X130913333Y-71415714D01*
X130865714Y-71510952D01*
X130818095Y-71558571D01*
X130722857Y-71606190D01*
X130341904Y-71606190D01*
X131770476Y-71082380D02*
X131580000Y-71082380D01*
X131484761Y-71130000D01*
X131437142Y-71177619D01*
X131341904Y-71320476D01*
X131294285Y-71510952D01*
X131294285Y-71891904D01*
X131341904Y-71987142D01*
X131389523Y-72034761D01*
X131484761Y-72082380D01*
X131675238Y-72082380D01*
X131770476Y-72034761D01*
X131818095Y-71987142D01*
X131865714Y-71891904D01*
X131865714Y-71653809D01*
X131818095Y-71558571D01*
X131770476Y-71510952D01*
X131675238Y-71463333D01*
X131484761Y-71463333D01*
X131389523Y-71510952D01*
X131341904Y-71558571D01*
X131294285Y-71653809D01*
%TO.C,R7*%
X155913333Y-109082380D02*
X155580000Y-108606190D01*
X155341904Y-109082380D02*
X155341904Y-108082380D01*
X155722857Y-108082380D01*
X155818095Y-108130000D01*
X155865714Y-108177619D01*
X155913333Y-108272857D01*
X155913333Y-108415714D01*
X155865714Y-108510952D01*
X155818095Y-108558571D01*
X155722857Y-108606190D01*
X155341904Y-108606190D01*
X156246666Y-108082380D02*
X156913333Y-108082380D01*
X156484761Y-109082380D01*
%TO.C,R8*%
X145913333Y-103082380D02*
X145580000Y-102606190D01*
X145341904Y-103082380D02*
X145341904Y-102082380D01*
X145722857Y-102082380D01*
X145818095Y-102130000D01*
X145865714Y-102177619D01*
X145913333Y-102272857D01*
X145913333Y-102415714D01*
X145865714Y-102510952D01*
X145818095Y-102558571D01*
X145722857Y-102606190D01*
X145341904Y-102606190D01*
X146484761Y-102510952D02*
X146389523Y-102463333D01*
X146341904Y-102415714D01*
X146294285Y-102320476D01*
X146294285Y-102272857D01*
X146341904Y-102177619D01*
X146389523Y-102130000D01*
X146484761Y-102082380D01*
X146675238Y-102082380D01*
X146770476Y-102130000D01*
X146818095Y-102177619D01*
X146865714Y-102272857D01*
X146865714Y-102320476D01*
X146818095Y-102415714D01*
X146770476Y-102463333D01*
X146675238Y-102510952D01*
X146484761Y-102510952D01*
X146389523Y-102558571D01*
X146341904Y-102606190D01*
X146294285Y-102701428D01*
X146294285Y-102891904D01*
X146341904Y-102987142D01*
X146389523Y-103034761D01*
X146484761Y-103082380D01*
X146675238Y-103082380D01*
X146770476Y-103034761D01*
X146818095Y-102987142D01*
X146865714Y-102891904D01*
X146865714Y-102701428D01*
X146818095Y-102606190D01*
X146770476Y-102558571D01*
X146675238Y-102510952D01*
%TO.C,R9*%
X138913333Y-66082380D02*
X138580000Y-65606190D01*
X138341904Y-66082380D02*
X138341904Y-65082380D01*
X138722857Y-65082380D01*
X138818095Y-65130000D01*
X138865714Y-65177619D01*
X138913333Y-65272857D01*
X138913333Y-65415714D01*
X138865714Y-65510952D01*
X138818095Y-65558571D01*
X138722857Y-65606190D01*
X138341904Y-65606190D01*
X139389523Y-66082380D02*
X139580000Y-66082380D01*
X139675238Y-66034761D01*
X139722857Y-65987142D01*
X139818095Y-65844285D01*
X139865714Y-65653809D01*
X139865714Y-65272857D01*
X139818095Y-65177619D01*
X139770476Y-65130000D01*
X139675238Y-65082380D01*
X139484761Y-65082380D01*
X139389523Y-65130000D01*
X139341904Y-65177619D01*
X139294285Y-65272857D01*
X139294285Y-65510952D01*
X139341904Y-65606190D01*
X139389523Y-65653809D01*
X139484761Y-65701428D01*
X139675238Y-65701428D01*
X139770476Y-65653809D01*
X139818095Y-65606190D01*
X139865714Y-65510952D01*
%TO.C,R10*%
X151437142Y-66662380D02*
X151103809Y-66186190D01*
X150865714Y-66662380D02*
X150865714Y-65662380D01*
X151246666Y-65662380D01*
X151341904Y-65710000D01*
X151389523Y-65757619D01*
X151437142Y-65852857D01*
X151437142Y-65995714D01*
X151389523Y-66090952D01*
X151341904Y-66138571D01*
X151246666Y-66186190D01*
X150865714Y-66186190D01*
X152389523Y-66662380D02*
X151818095Y-66662380D01*
X152103809Y-66662380D02*
X152103809Y-65662380D01*
X152008571Y-65805238D01*
X151913333Y-65900476D01*
X151818095Y-65948095D01*
X153008571Y-65662380D02*
X153103809Y-65662380D01*
X153199047Y-65710000D01*
X153246666Y-65757619D01*
X153294285Y-65852857D01*
X153341904Y-66043333D01*
X153341904Y-66281428D01*
X153294285Y-66471904D01*
X153246666Y-66567142D01*
X153199047Y-66614761D01*
X153103809Y-66662380D01*
X153008571Y-66662380D01*
X152913333Y-66614761D01*
X152865714Y-66567142D01*
X152818095Y-66471904D01*
X152770476Y-66281428D01*
X152770476Y-66043333D01*
X152818095Y-65852857D01*
X152865714Y-65757619D01*
X152913333Y-65710000D01*
X153008571Y-65662380D01*
%TO.C,U1*%
X133048095Y-77122380D02*
X133048095Y-77931904D01*
X133095714Y-78027142D01*
X133143333Y-78074761D01*
X133238571Y-78122380D01*
X133429047Y-78122380D01*
X133524285Y-78074761D01*
X133571904Y-78027142D01*
X133619523Y-77931904D01*
X133619523Y-77122380D01*
X134619523Y-78122380D02*
X134048095Y-78122380D01*
X134333809Y-78122380D02*
X134333809Y-77122380D01*
X134238571Y-77265238D01*
X134143333Y-77360476D01*
X134048095Y-77408095D01*
%TO.C,U2*%
X144048095Y-88122380D02*
X144048095Y-88931904D01*
X144095714Y-89027142D01*
X144143333Y-89074761D01*
X144238571Y-89122380D01*
X144429047Y-89122380D01*
X144524285Y-89074761D01*
X144571904Y-89027142D01*
X144619523Y-88931904D01*
X144619523Y-88122380D01*
X145048095Y-88217619D02*
X145095714Y-88170000D01*
X145190952Y-88122380D01*
X145429047Y-88122380D01*
X145524285Y-88170000D01*
X145571904Y-88217619D01*
X145619523Y-88312857D01*
X145619523Y-88408095D01*
X145571904Y-88550952D01*
X145000476Y-89122380D01*
X145619523Y-89122380D01*
%TO.C,U3*%
X133048095Y-90122380D02*
X133048095Y-90931904D01*
X133095714Y-91027142D01*
X133143333Y-91074761D01*
X133238571Y-91122380D01*
X133429047Y-91122380D01*
X133524285Y-91074761D01*
X133571904Y-91027142D01*
X133619523Y-90931904D01*
X133619523Y-90122380D01*
X134000476Y-90122380D02*
X134619523Y-90122380D01*
X134286190Y-90503333D01*
X134429047Y-90503333D01*
X134524285Y-90550952D01*
X134571904Y-90598571D01*
X134619523Y-90693809D01*
X134619523Y-90931904D01*
X134571904Y-91027142D01*
X134524285Y-91074761D01*
X134429047Y-91122380D01*
X134143333Y-91122380D01*
X134048095Y-91074761D01*
X134000476Y-91027142D01*
%TD*%
M02*
