M48
; DRILL file {KiCad 5.1.10} date Thu Jun 24 22:29:24 2021
; FORMAT={-:-/ absolute / inch / decimal}
; #@! TF.CreationDate,2021-06-24T22:29:24-07:00
; #@! TF.GenerationSoftware,Kicad,Pcbnew,5.1.10
FMAT,2
INCH
T1C0.0157
T2C0.0315
T3C0.0354
T4C0.0394
%
G90
G05
T1
X5.5886Y-3.9614
X5.65Y-4.0
X6.1938Y-2.7938
T2
X4.7244Y-2.874
X4.8228Y-2.874
X4.9606Y-2.9134
X5.1181Y-3.1496
X5.1181Y-3.2496
X5.1181Y-3.3496
X5.1181Y-3.4496
X5.1181Y-3.6614
X5.1181Y-3.7614
X5.1181Y-3.8614
X5.1181Y-3.9614
X5.1181Y-4.0614
X5.1181Y-4.1614
X5.1181Y-4.2614
X5.1181Y-4.3614
X5.2756Y-2.6772
X5.3606Y-2.9134
X5.4181Y-3.1496
X5.4181Y-3.2496
X5.4181Y-3.3496
X5.4181Y-3.4496
X5.4181Y-3.6614
X5.4181Y-3.7614
X5.4181Y-3.8614
X5.4181Y-3.9614
X5.4181Y-4.0614
X5.4181Y-4.1614
X5.4181Y-4.2614
X5.4181Y-4.3614
X5.4724Y-2.9134
X5.5512Y-3.2677
X5.5512Y-3.5827
X5.5512Y-3.6827
X5.5512Y-3.7827
X5.5512Y-3.8827
X5.5512Y-4.1339
X5.6756Y-2.6772
X5.7874Y-2.7
X5.8512Y-3.5827
X5.8512Y-3.6827
X5.8512Y-3.7827
X5.8512Y-3.8827
X5.8724Y-2.9134
X5.9449Y-4.3701
X5.9512Y-3.2677
X5.9512Y-4.1339
X5.9843Y-3.6614
X5.9843Y-3.8976
X6.063Y-3.189
X6.063Y-3.4252
X6.1614Y-3.4252
X6.1874Y-2.7
X6.3449Y-4.3701
X6.3843Y-3.6614
X6.3843Y-3.8976
X6.463Y-3.189
T3
X4.685Y-3.1496
X4.985Y-3.1496
X5.05Y-2.65
X5.05Y-2.75
X6.2992Y-3.4252
X6.3Y-2.7
X6.5992Y-3.4252
X6.6Y-2.7
T4
X4.7Y-3.35
X4.7Y-3.45
X4.7Y-3.55
X4.7Y-3.65
X4.7Y-3.75
X4.7Y-3.85
X4.7Y-3.95
X4.7Y-4.05
X4.7Y-4.15
X4.7Y-4.25
X4.7Y-4.35
X4.7Y-4.45
X4.7Y-4.55
X4.8Y-3.35
X4.8Y-3.45
X4.8Y-3.55
X4.8Y-3.65
X4.8Y-3.75
X4.8Y-3.85
X4.8Y-3.95
X4.8Y-4.05
X4.8Y-4.15
X4.8Y-4.25
X4.8Y-4.35
X4.8Y-4.45
X4.8Y-4.55
X4.95Y-3.55
X4.95Y-3.65
X4.95Y-3.85
X4.95Y-3.95
X4.95Y-4.15
X4.95Y-4.25
X4.95Y-4.45
X4.95Y-4.55
X5.2Y-4.55
X5.3Y-4.55
X6.0236Y-2.874
X6.0236Y-2.974
X6.4173Y-2.874
X6.4173Y-2.974
X6.55Y-3.7
X6.55Y-3.8
X6.55Y-3.9
X6.55Y-4.25
X6.55Y-4.35
T0
M30
