%TF.GenerationSoftware,KiCad,Pcbnew,5.1.10*%
%TF.CreationDate,2021-06-24T22:29:26-07:00*%
%TF.ProjectId,weatherstation,77656174-6865-4727-9374-6174696f6e2e,rev?*%
%TF.SameCoordinates,Original*%
%TF.FileFunction,Copper,L2,Bot*%
%TF.FilePolarity,Positive*%
%FSLAX46Y46*%
G04 Gerber Fmt 4.6, Leading zero omitted, Abs format (unit mm)*
G04 Created by KiCad (PCBNEW 5.1.10) date 2021-06-24 22:29:26*
%MOMM*%
%LPD*%
G01*
G04 APERTURE LIST*
%TA.AperFunction,ComponentPad*%
%ADD10R,1.700000X1.700000*%
%TD*%
%TA.AperFunction,ComponentPad*%
%ADD11O,1.700000X1.700000*%
%TD*%
%TA.AperFunction,ComponentPad*%
%ADD12R,1.600000X1.600000*%
%TD*%
%TA.AperFunction,ComponentPad*%
%ADD13C,1.600000*%
%TD*%
%TA.AperFunction,ComponentPad*%
%ADD14R,1.800000X1.800000*%
%TD*%
%TA.AperFunction,ComponentPad*%
%ADD15O,1.800000X1.800000*%
%TD*%
%TA.AperFunction,ComponentPad*%
%ADD16C,1.800000*%
%TD*%
%TA.AperFunction,ComponentPad*%
%ADD17O,1.600000X1.600000*%
%TD*%
%TA.AperFunction,ViaPad*%
%ADD18C,0.800000*%
%TD*%
%TA.AperFunction,Conductor*%
%ADD19C,0.250000*%
%TD*%
G04 APERTURE END LIST*
D10*
%TO.P,J1,1*%
%TO.N,Net-(J1-Pad1)*%
X121920000Y-115570000D03*
D11*
%TO.P,J1,2*%
%TO.N,+5V*%
X119380000Y-115570000D03*
%TO.P,J1,3*%
%TO.N,Net-(J1-Pad3)*%
X121920000Y-113030000D03*
%TO.P,J1,4*%
%TO.N,+5V*%
X119380000Y-113030000D03*
%TO.P,J1,5*%
%TO.N,Net-(J1-Pad5)*%
X121920000Y-110490000D03*
%TO.P,J1,6*%
%TO.N,GND*%
X119380000Y-110490000D03*
%TO.P,J1,7*%
%TO.N,Net-(J1-Pad7)*%
X121920000Y-107950000D03*
%TO.P,J1,8*%
%TO.N,Net-(J1-Pad8)*%
X119380000Y-107950000D03*
%TO.P,J1,9*%
%TO.N,GND*%
X121920000Y-105410000D03*
%TO.P,J1,10*%
%TO.N,Net-(J1-Pad10)*%
X119380000Y-105410000D03*
%TO.P,J1,11*%
%TO.N,Net-(J1-Pad11)*%
X121920000Y-102870000D03*
%TO.P,J1,12*%
%TO.N,Net-(J1-Pad12)*%
X119380000Y-102870000D03*
%TO.P,J1,13*%
%TO.N,Net-(J1-Pad13)*%
X121920000Y-100330000D03*
%TO.P,J1,14*%
%TO.N,GND*%
X119380000Y-100330000D03*
%TO.P,J1,15*%
%TO.N,/ADC_CS*%
X121920000Y-97790000D03*
%TO.P,J1,16*%
%TO.N,Net-(J1-Pad16)*%
X119380000Y-97790000D03*
%TO.P,J1,17*%
%TO.N,Net-(J1-Pad17)*%
X121920000Y-95250000D03*
%TO.P,J1,18*%
%TO.N,Net-(J1-Pad18)*%
X119380000Y-95250000D03*
%TO.P,J1,19*%
%TO.N,/ADC_Din*%
X121920000Y-92710000D03*
%TO.P,J1,20*%
%TO.N,GND*%
X119380000Y-92710000D03*
%TO.P,J1,21*%
%TO.N,/ADC_Dout*%
X121920000Y-90170000D03*
%TO.P,J1,22*%
%TO.N,Net-(J1-Pad22)*%
X119380000Y-90170000D03*
%TO.P,J1,23*%
%TO.N,/ADC_CLK*%
X121920000Y-87630000D03*
%TO.P,J1,24*%
%TO.N,Net-(J1-Pad24)*%
X119380000Y-87630000D03*
%TO.P,J1,25*%
%TO.N,GND*%
X121920000Y-85090000D03*
%TO.P,J1,26*%
%TO.N,Net-(J1-Pad26)*%
X119380000Y-85090000D03*
%TD*%
D12*
%TO.P,C1,1*%
%TO.N,Net-(C1-Pad1)*%
X120000000Y-73000000D03*
D13*
%TO.P,C1,2*%
%TO.N,Net-(C1-Pad2)*%
X122500000Y-73000000D03*
%TD*%
%TO.P,C2,1*%
%TO.N,Net-(C2-Pad1)*%
X154000000Y-87000000D03*
%TO.P,C2,2*%
%TO.N,GND*%
X156500000Y-87000000D03*
%TD*%
D14*
%TO.P,D1,1*%
%TO.N,Net-(D1-Pad1)*%
X160000000Y-87000000D03*
D15*
%TO.P,D1,2*%
%TO.N,Net-(C1-Pad2)*%
X167620000Y-87000000D03*
%TD*%
D14*
%TO.P,D2,1*%
%TO.N,+5V*%
X160020000Y-68580000D03*
D15*
%TO.P,D2,2*%
%TO.N,Net-(C1-Pad1)*%
X167640000Y-68580000D03*
%TD*%
%TO.P,D3,2*%
%TO.N,Net-(C1-Pad2)*%
X126620000Y-80000000D03*
D14*
%TO.P,D3,1*%
%TO.N,Net-(C1-Pad1)*%
X119000000Y-80000000D03*
%TD*%
%TO.P,D4,1*%
%TO.N,GND*%
X128270000Y-69850000D03*
D16*
%TO.P,D4,2*%
%TO.N,Net-(D4-Pad2)*%
X128270000Y-67310000D03*
%TD*%
D11*
%TO.P,J2,2*%
%TO.N,GND*%
X166370000Y-110490000D03*
D10*
%TO.P,J2,1*%
%TO.N,Net-(D1-Pad1)*%
X166370000Y-107950000D03*
%TD*%
%TO.P,J3,1*%
%TO.N,/CH1*%
X153000000Y-73000000D03*
D11*
%TO.P,J3,2*%
%TO.N,GND*%
X153000000Y-75540000D03*
%TD*%
%TO.P,J4,2*%
%TO.N,GND*%
X125730000Y-92710000D03*
D10*
%TO.P,J4,1*%
%TO.N,/CH2*%
X125730000Y-90170000D03*
%TD*%
%TO.P,J5,1*%
%TO.N,/CH3*%
X125730000Y-97790000D03*
D11*
%TO.P,J5,2*%
%TO.N,GND*%
X125730000Y-100330000D03*
%TD*%
D10*
%TO.P,J6,1*%
%TO.N,/CH4*%
X125730000Y-105410000D03*
D11*
%TO.P,J6,2*%
%TO.N,GND*%
X125730000Y-107950000D03*
%TD*%
%TO.P,J7,2*%
%TO.N,GND*%
X125730000Y-115570000D03*
D10*
%TO.P,J7,1*%
%TO.N,/CH5*%
X125730000Y-113030000D03*
%TD*%
%TO.P,J8,1*%
%TO.N,/CH6*%
X163000000Y-73000000D03*
D11*
%TO.P,J8,2*%
%TO.N,GND*%
X163000000Y-75540000D03*
%TD*%
%TO.P,J9,2*%
%TO.N,GND*%
X134620000Y-115570000D03*
D10*
%TO.P,J9,1*%
%TO.N,/CH7*%
X132080000Y-115570000D03*
%TD*%
%TO.P,J10,1*%
%TO.N,/Dir+*%
X166370000Y-93980000D03*
D11*
%TO.P,J10,2*%
%TO.N,/DirInput*%
X166370000Y-96520000D03*
%TO.P,J10,3*%
%TO.N,/Dir-*%
X166370000Y-99060000D03*
%TD*%
D13*
%TO.P,R1,1*%
%TO.N,Net-(C1-Pad1)*%
X154000000Y-81000000D03*
D17*
%TO.P,R1,2*%
%TO.N,Net-(D1-Pad1)*%
X164160000Y-81000000D03*
%TD*%
%TO.P,R2,2*%
%TO.N,/Dir+*%
X162160000Y-93000000D03*
D13*
%TO.P,R2,1*%
%TO.N,+5V*%
X152000000Y-93000000D03*
%TD*%
D17*
%TO.P,R3,2*%
%TO.N,/DirInput*%
X162160000Y-99000000D03*
D13*
%TO.P,R3,1*%
%TO.N,Net-(C2-Pad1)*%
X152000000Y-99000000D03*
%TD*%
%TO.P,R4,1*%
%TO.N,GND*%
X139000000Y-74000000D03*
D17*
%TO.P,R4,2*%
%TO.N,/Dir-*%
X149160000Y-74000000D03*
%TD*%
D13*
%TO.P,R5,1*%
%TO.N,+5V*%
X141000000Y-83000000D03*
D17*
%TO.P,R5,2*%
%TO.N,Net-(C1-Pad2)*%
X151160000Y-83000000D03*
%TD*%
%TO.P,R6,2*%
%TO.N,GND*%
X136160000Y-74000000D03*
D13*
%TO.P,R6,1*%
%TO.N,Net-(C1-Pad2)*%
X126000000Y-74000000D03*
%TD*%
%TO.P,R7,1*%
%TO.N,Net-(C2-Pad1)*%
X151000000Y-111000000D03*
D17*
%TO.P,R7,2*%
%TO.N,GND*%
X161160000Y-111000000D03*
%TD*%
%TO.P,R8,2*%
%TO.N,Net-(C2-Pad1)*%
X151160000Y-105000000D03*
D13*
%TO.P,R8,1*%
%TO.N,Net-(R8-Pad1)*%
X141000000Y-105000000D03*
%TD*%
%TO.P,R9,1*%
%TO.N,/CH1*%
X134000000Y-68000000D03*
D17*
%TO.P,R9,2*%
%TO.N,Net-(R8-Pad1)*%
X144160000Y-68000000D03*
%TD*%
%TO.P,R10,2*%
%TO.N,Net-(D4-Pad2)*%
X157160000Y-68580000D03*
D13*
%TO.P,R10,1*%
%TO.N,/CH0*%
X147000000Y-68580000D03*
%TD*%
D12*
%TO.P,U1,1*%
%TO.N,Net-(U1-Pad1)*%
X130000000Y-80000000D03*
D17*
%TO.P,U1,5*%
%TO.N,Net-(U1-Pad5)*%
X137620000Y-87620000D03*
%TO.P,U1,2*%
%TO.N,Net-(C1-Pad2)*%
X130000000Y-82540000D03*
%TO.P,U1,6*%
%TO.N,/CH0*%
X137620000Y-85080000D03*
%TO.P,U1,3*%
%TO.N,Net-(C1-Pad1)*%
X130000000Y-85080000D03*
%TO.P,U1,7*%
%TO.N,+5V*%
X137620000Y-82540000D03*
%TO.P,U1,4*%
%TO.N,GND*%
X130000000Y-87620000D03*
%TO.P,U1,8*%
%TO.N,Net-(U1-Pad8)*%
X137620000Y-80000000D03*
%TD*%
%TO.P,U2,8*%
%TO.N,Net-(U2-Pad8)*%
X148620000Y-91000000D03*
%TO.P,U2,4*%
%TO.N,GND*%
X141000000Y-98620000D03*
%TO.P,U2,7*%
%TO.N,+5V*%
X148620000Y-93540000D03*
%TO.P,U2,3*%
%TO.N,Net-(R8-Pad1)*%
X141000000Y-96080000D03*
%TO.P,U2,6*%
%TO.N,/CH1*%
X148620000Y-96080000D03*
%TO.P,U2,2*%
%TO.N,GND*%
X141000000Y-93540000D03*
%TO.P,U2,5*%
%TO.N,Net-(U2-Pad5)*%
X148620000Y-98620000D03*
D12*
%TO.P,U2,1*%
%TO.N,Net-(U2-Pad1)*%
X141000000Y-91000000D03*
%TD*%
%TO.P,U3,1*%
%TO.N,/CH0*%
X130000000Y-93000000D03*
D17*
%TO.P,U3,9*%
%TO.N,GND*%
X137620000Y-110780000D03*
%TO.P,U3,2*%
%TO.N,/CH1*%
X130000000Y-95540000D03*
%TO.P,U3,10*%
%TO.N,/ADC_CS*%
X137620000Y-108240000D03*
%TO.P,U3,3*%
%TO.N,/CH2*%
X130000000Y-98080000D03*
%TO.P,U3,11*%
%TO.N,/ADC_Din*%
X137620000Y-105700000D03*
%TO.P,U3,4*%
%TO.N,/CH3*%
X130000000Y-100620000D03*
%TO.P,U3,12*%
%TO.N,/ADC_Dout*%
X137620000Y-103160000D03*
%TO.P,U3,5*%
%TO.N,/CH4*%
X130000000Y-103160000D03*
%TO.P,U3,13*%
%TO.N,/ADC_CLK*%
X137620000Y-100620000D03*
%TO.P,U3,6*%
%TO.N,/CH5*%
X130000000Y-105700000D03*
%TO.P,U3,14*%
%TO.N,GND*%
X137620000Y-98080000D03*
%TO.P,U3,7*%
%TO.N,/CH6*%
X130000000Y-108240000D03*
%TO.P,U3,15*%
%TO.N,+5V*%
X137620000Y-95540000D03*
%TO.P,U3,8*%
%TO.N,/CH7*%
X130000000Y-110780000D03*
%TO.P,U3,16*%
%TO.N,+5V*%
X137620000Y-93000000D03*
%TD*%
D18*
%TO.N,Net-(C1-Pad1)*%
X157322501Y-70962501D03*
%TO.N,/ADC_CLK*%
X141950000Y-100620000D03*
%TO.N,Net-(R8-Pad1)*%
X143510000Y-101600000D03*
%TD*%
D19*
%TO.N,Net-(C1-Pad1)*%
X157322501Y-77677499D02*
X157322501Y-70962501D01*
X154000000Y-81000000D02*
X157322501Y-77677499D01*
%TO.N,Net-(C1-Pad2)*%
X167620000Y-73794998D02*
X167620000Y-87000000D01*
X160249992Y-66424990D02*
X167620000Y-73794998D01*
X142070008Y-66424990D02*
X160249992Y-66424990D01*
X135034999Y-73459999D02*
X142070008Y-66424990D01*
X135034999Y-77505001D02*
X135034999Y-73459999D01*
X130000000Y-82540000D02*
X135034999Y-77505001D01*
%TO.N,GND*%
X136160000Y-81460000D02*
X130000000Y-87620000D01*
X136160000Y-74000000D02*
X136160000Y-81460000D01*
X156590000Y-115570000D02*
X161160000Y-111000000D01*
X134620000Y-115570000D02*
X156590000Y-115570000D01*
X120555001Y-111665001D02*
X119380000Y-110490000D01*
X120555001Y-113404003D02*
X120555001Y-111665001D01*
X121355999Y-114205001D02*
X120555001Y-113404003D01*
X124365001Y-114205001D02*
X121355999Y-114205001D01*
X125730000Y-115570000D02*
X124365001Y-114205001D01*
%TO.N,+5V*%
X141000000Y-80494998D02*
X141000000Y-83000000D01*
X154039999Y-67454999D02*
X141000000Y-80494998D01*
X158894999Y-67454999D02*
X154039999Y-67454999D01*
X160020000Y-68580000D02*
X158894999Y-67454999D01*
X131414999Y-88745001D02*
X137620000Y-82540000D01*
X129459999Y-88745001D02*
X131414999Y-88745001D01*
X123264998Y-82550000D02*
X129459999Y-88745001D01*
X119380000Y-82550000D02*
X123264998Y-82550000D01*
X119380000Y-113030000D02*
X117754989Y-111404989D01*
X117754989Y-111404989D02*
X117754989Y-84175011D01*
X117754989Y-84175011D02*
X119380000Y-82550000D01*
%TO.N,/ADC_CS*%
X129174001Y-109654999D02*
X126104003Y-106585001D01*
X136205001Y-109654999D02*
X129174001Y-109654999D01*
X137620000Y-108240000D02*
X136205001Y-109654999D01*
X123095001Y-98965001D02*
X121920000Y-97790000D01*
X124619999Y-106585001D02*
X123095001Y-105060003D01*
X123095001Y-105060003D02*
X123095001Y-98965001D01*
X126104003Y-106585001D02*
X124619999Y-106585001D01*
%TO.N,/ADC_Din*%
X120744999Y-93885001D02*
X121920000Y-92710000D01*
X122625999Y-106585001D02*
X121355999Y-106585001D01*
X120744999Y-105974001D02*
X120744999Y-93885001D01*
X127945999Y-111905001D02*
X122625999Y-106585001D01*
X121355999Y-106585001D02*
X120744999Y-105974001D01*
X134829997Y-111905001D02*
X127945999Y-111905001D01*
X137079999Y-109654999D02*
X134829997Y-111905001D01*
X138745001Y-108780001D02*
X137870003Y-109654999D01*
X138745001Y-106825001D02*
X138745001Y-108780001D01*
X137870003Y-109654999D02*
X137079999Y-109654999D01*
X137620000Y-105700000D02*
X138745001Y-106825001D01*
%TO.N,/ADC_Dout*%
X120744999Y-91345001D02*
X121920000Y-90170000D01*
X118204999Y-105974001D02*
X118204999Y-92145999D01*
X137620000Y-103160000D02*
X139195010Y-104735010D01*
X124110003Y-109125001D02*
X121355999Y-109125001D01*
X118204999Y-92145999D02*
X119005997Y-91345001D01*
X139195010Y-104735010D02*
X139195010Y-110869992D01*
X121355999Y-109125001D02*
X120555001Y-108324003D01*
X137035002Y-113030000D02*
X134620000Y-113030000D01*
X139195010Y-110869992D02*
X137035002Y-113030000D01*
X133705011Y-113944989D02*
X128929991Y-113944989D01*
X118815999Y-106585001D02*
X118204999Y-105974001D01*
X119754003Y-106585001D02*
X118815999Y-106585001D01*
X128929991Y-113944989D02*
X124110003Y-109125001D01*
X134620000Y-113030000D02*
X133705011Y-113944989D01*
X120555001Y-108324003D02*
X120555001Y-107385999D01*
X119005997Y-91345001D02*
X120744999Y-91345001D01*
X120555001Y-107385999D02*
X119754003Y-106585001D01*
%TO.N,/ADC_CLK*%
X141334998Y-100620000D02*
X141950000Y-100620000D01*
X138745001Y-98030003D02*
X141334998Y-100620000D01*
X138745001Y-92459999D02*
X138745001Y-98030003D01*
X138160001Y-91874999D02*
X138745001Y-92459999D01*
X131953587Y-91874999D02*
X138160001Y-91874999D01*
X127708588Y-87630000D02*
X131953587Y-91874999D01*
X121920000Y-87630000D02*
X127708588Y-87630000D01*
%TO.N,/CH1*%
X149745001Y-76254999D02*
X153000000Y-73000000D01*
X149745001Y-94954999D02*
X149745001Y-76254999D01*
X148620000Y-96080000D02*
X149745001Y-94954999D01*
%TO.N,/CH6*%
X163000000Y-73800998D02*
X163000000Y-73000000D01*
X146035002Y-102870000D02*
X153125001Y-95780001D01*
X153125001Y-92459999D02*
X152540001Y-91874999D01*
X131125001Y-107114999D02*
X131125001Y-105449997D01*
X130000000Y-108240000D02*
X131125001Y-107114999D01*
X131125001Y-105449997D02*
X137079999Y-99494999D01*
X142240000Y-102870000D02*
X146035002Y-102870000D01*
X153125001Y-95780001D02*
X153125001Y-92459999D01*
X138745001Y-100079999D02*
X139449999Y-100079999D01*
X137079999Y-99494999D02*
X138160001Y-99494999D01*
X139449999Y-100079999D02*
X142240000Y-102870000D01*
X138160001Y-99494999D02*
X138745001Y-100079999D01*
X152540001Y-84260997D02*
X163000000Y-73800998D01*
X152540001Y-91874999D02*
X152540001Y-84260997D01*
%TO.N,Net-(R8-Pad1)*%
X139874999Y-94954999D02*
X141000000Y-96080000D01*
X139874999Y-80983589D02*
X139874999Y-94954999D01*
X144160000Y-76698588D02*
X139874999Y-80983589D01*
X144160000Y-68000000D02*
X144160000Y-76698588D01*
X143510000Y-98590000D02*
X143510000Y-101600000D01*
X141000000Y-96080000D02*
X143510000Y-98590000D01*
%TO.N,/CH0*%
X138745001Y-81477177D02*
X138745001Y-83954999D01*
X138745001Y-83954999D02*
X137620000Y-85080000D01*
X140125001Y-80097177D02*
X138745001Y-81477177D01*
X140125001Y-70369997D02*
X140125001Y-80097177D01*
X143619999Y-66874999D02*
X140125001Y-70369997D01*
X145294999Y-66874999D02*
X143619999Y-66874999D01*
X147000000Y-68580000D02*
X145294999Y-66874999D01*
%TD*%
M02*
