%TF.GenerationSoftware,KiCad,Pcbnew,5.1.10*%
%TF.CreationDate,2021-06-24T22:29:26-07:00*%
%TF.ProjectId,weatherstation,77656174-6865-4727-9374-6174696f6e2e,rev?*%
%TF.SameCoordinates,Original*%
%TF.FileFunction,Copper,L1,Top*%
%TF.FilePolarity,Positive*%
%FSLAX46Y46*%
G04 Gerber Fmt 4.6, Leading zero omitted, Abs format (unit mm)*
G04 Created by KiCad (PCBNEW 5.1.10) date 2021-06-24 22:29:26*
%MOMM*%
%LPD*%
G01*
G04 APERTURE LIST*
%TA.AperFunction,ComponentPad*%
%ADD10R,1.700000X1.700000*%
%TD*%
%TA.AperFunction,ComponentPad*%
%ADD11O,1.700000X1.700000*%
%TD*%
%TA.AperFunction,ComponentPad*%
%ADD12R,1.600000X1.600000*%
%TD*%
%TA.AperFunction,ComponentPad*%
%ADD13C,1.600000*%
%TD*%
%TA.AperFunction,ComponentPad*%
%ADD14R,1.800000X1.800000*%
%TD*%
%TA.AperFunction,ComponentPad*%
%ADD15O,1.800000X1.800000*%
%TD*%
%TA.AperFunction,ComponentPad*%
%ADD16C,1.800000*%
%TD*%
%TA.AperFunction,ComponentPad*%
%ADD17O,1.600000X1.600000*%
%TD*%
%TA.AperFunction,ViaPad*%
%ADD18C,0.800000*%
%TD*%
%TA.AperFunction,Conductor*%
%ADD19C,0.250000*%
%TD*%
G04 APERTURE END LIST*
D10*
%TO.P,J1,1*%
%TO.N,Net-(J1-Pad1)*%
X121920000Y-115570000D03*
D11*
%TO.P,J1,2*%
%TO.N,+5V*%
X119380000Y-115570000D03*
%TO.P,J1,3*%
%TO.N,Net-(J1-Pad3)*%
X121920000Y-113030000D03*
%TO.P,J1,4*%
%TO.N,+5V*%
X119380000Y-113030000D03*
%TO.P,J1,5*%
%TO.N,Net-(J1-Pad5)*%
X121920000Y-110490000D03*
%TO.P,J1,6*%
%TO.N,GND*%
X119380000Y-110490000D03*
%TO.P,J1,7*%
%TO.N,Net-(J1-Pad7)*%
X121920000Y-107950000D03*
%TO.P,J1,8*%
%TO.N,Net-(J1-Pad8)*%
X119380000Y-107950000D03*
%TO.P,J1,9*%
%TO.N,GND*%
X121920000Y-105410000D03*
%TO.P,J1,10*%
%TO.N,Net-(J1-Pad10)*%
X119380000Y-105410000D03*
%TO.P,J1,11*%
%TO.N,Net-(J1-Pad11)*%
X121920000Y-102870000D03*
%TO.P,J1,12*%
%TO.N,Net-(J1-Pad12)*%
X119380000Y-102870000D03*
%TO.P,J1,13*%
%TO.N,Net-(J1-Pad13)*%
X121920000Y-100330000D03*
%TO.P,J1,14*%
%TO.N,GND*%
X119380000Y-100330000D03*
%TO.P,J1,15*%
%TO.N,/ADC_CS*%
X121920000Y-97790000D03*
%TO.P,J1,16*%
%TO.N,Net-(J1-Pad16)*%
X119380000Y-97790000D03*
%TO.P,J1,17*%
%TO.N,Net-(J1-Pad17)*%
X121920000Y-95250000D03*
%TO.P,J1,18*%
%TO.N,Net-(J1-Pad18)*%
X119380000Y-95250000D03*
%TO.P,J1,19*%
%TO.N,/ADC_Din*%
X121920000Y-92710000D03*
%TO.P,J1,20*%
%TO.N,GND*%
X119380000Y-92710000D03*
%TO.P,J1,21*%
%TO.N,/ADC_Dout*%
X121920000Y-90170000D03*
%TO.P,J1,22*%
%TO.N,Net-(J1-Pad22)*%
X119380000Y-90170000D03*
%TO.P,J1,23*%
%TO.N,/ADC_CLK*%
X121920000Y-87630000D03*
%TO.P,J1,24*%
%TO.N,Net-(J1-Pad24)*%
X119380000Y-87630000D03*
%TO.P,J1,25*%
%TO.N,GND*%
X121920000Y-85090000D03*
%TO.P,J1,26*%
%TO.N,Net-(J1-Pad26)*%
X119380000Y-85090000D03*
%TD*%
D12*
%TO.P,C1,1*%
%TO.N,Net-(C1-Pad1)*%
X120000000Y-73000000D03*
D13*
%TO.P,C1,2*%
%TO.N,Net-(C1-Pad2)*%
X122500000Y-73000000D03*
%TD*%
%TO.P,C2,1*%
%TO.N,Net-(C2-Pad1)*%
X154000000Y-87000000D03*
%TO.P,C2,2*%
%TO.N,GND*%
X156500000Y-87000000D03*
%TD*%
D14*
%TO.P,D1,1*%
%TO.N,Net-(D1-Pad1)*%
X160000000Y-87000000D03*
D15*
%TO.P,D1,2*%
%TO.N,Net-(C1-Pad2)*%
X167620000Y-87000000D03*
%TD*%
D14*
%TO.P,D2,1*%
%TO.N,+5V*%
X160020000Y-68580000D03*
D15*
%TO.P,D2,2*%
%TO.N,Net-(C1-Pad1)*%
X167640000Y-68580000D03*
%TD*%
%TO.P,D3,2*%
%TO.N,Net-(C1-Pad2)*%
X126620000Y-80000000D03*
D14*
%TO.P,D3,1*%
%TO.N,Net-(C1-Pad1)*%
X119000000Y-80000000D03*
%TD*%
%TO.P,D4,1*%
%TO.N,GND*%
X128270000Y-69850000D03*
D16*
%TO.P,D4,2*%
%TO.N,Net-(D4-Pad2)*%
X128270000Y-67310000D03*
%TD*%
D11*
%TO.P,J2,2*%
%TO.N,GND*%
X166370000Y-110490000D03*
D10*
%TO.P,J2,1*%
%TO.N,Net-(D1-Pad1)*%
X166370000Y-107950000D03*
%TD*%
%TO.P,J3,1*%
%TO.N,/CH1*%
X153000000Y-73000000D03*
D11*
%TO.P,J3,2*%
%TO.N,GND*%
X153000000Y-75540000D03*
%TD*%
%TO.P,J4,2*%
%TO.N,GND*%
X125730000Y-92710000D03*
D10*
%TO.P,J4,1*%
%TO.N,/CH2*%
X125730000Y-90170000D03*
%TD*%
%TO.P,J5,1*%
%TO.N,/CH3*%
X125730000Y-97790000D03*
D11*
%TO.P,J5,2*%
%TO.N,GND*%
X125730000Y-100330000D03*
%TD*%
D10*
%TO.P,J6,1*%
%TO.N,/CH4*%
X125730000Y-105410000D03*
D11*
%TO.P,J6,2*%
%TO.N,GND*%
X125730000Y-107950000D03*
%TD*%
%TO.P,J7,2*%
%TO.N,GND*%
X125730000Y-115570000D03*
D10*
%TO.P,J7,1*%
%TO.N,/CH5*%
X125730000Y-113030000D03*
%TD*%
%TO.P,J8,1*%
%TO.N,/CH6*%
X163000000Y-73000000D03*
D11*
%TO.P,J8,2*%
%TO.N,GND*%
X163000000Y-75540000D03*
%TD*%
%TO.P,J9,2*%
%TO.N,GND*%
X134620000Y-115570000D03*
D10*
%TO.P,J9,1*%
%TO.N,/CH7*%
X132080000Y-115570000D03*
%TD*%
%TO.P,J10,1*%
%TO.N,/Dir+*%
X166370000Y-93980000D03*
D11*
%TO.P,J10,2*%
%TO.N,/DirInput*%
X166370000Y-96520000D03*
%TO.P,J10,3*%
%TO.N,/Dir-*%
X166370000Y-99060000D03*
%TD*%
D13*
%TO.P,R1,1*%
%TO.N,Net-(C1-Pad1)*%
X154000000Y-81000000D03*
D17*
%TO.P,R1,2*%
%TO.N,Net-(D1-Pad1)*%
X164160000Y-81000000D03*
%TD*%
%TO.P,R2,2*%
%TO.N,/Dir+*%
X162160000Y-93000000D03*
D13*
%TO.P,R2,1*%
%TO.N,+5V*%
X152000000Y-93000000D03*
%TD*%
D17*
%TO.P,R3,2*%
%TO.N,/DirInput*%
X162160000Y-99000000D03*
D13*
%TO.P,R3,1*%
%TO.N,Net-(C2-Pad1)*%
X152000000Y-99000000D03*
%TD*%
%TO.P,R4,1*%
%TO.N,GND*%
X139000000Y-74000000D03*
D17*
%TO.P,R4,2*%
%TO.N,/Dir-*%
X149160000Y-74000000D03*
%TD*%
D13*
%TO.P,R5,1*%
%TO.N,+5V*%
X141000000Y-83000000D03*
D17*
%TO.P,R5,2*%
%TO.N,Net-(C1-Pad2)*%
X151160000Y-83000000D03*
%TD*%
%TO.P,R6,2*%
%TO.N,GND*%
X136160000Y-74000000D03*
D13*
%TO.P,R6,1*%
%TO.N,Net-(C1-Pad2)*%
X126000000Y-74000000D03*
%TD*%
%TO.P,R7,1*%
%TO.N,Net-(C2-Pad1)*%
X151000000Y-111000000D03*
D17*
%TO.P,R7,2*%
%TO.N,GND*%
X161160000Y-111000000D03*
%TD*%
%TO.P,R8,2*%
%TO.N,Net-(C2-Pad1)*%
X151160000Y-105000000D03*
D13*
%TO.P,R8,1*%
%TO.N,Net-(R8-Pad1)*%
X141000000Y-105000000D03*
%TD*%
%TO.P,R9,1*%
%TO.N,/CH1*%
X134000000Y-68000000D03*
D17*
%TO.P,R9,2*%
%TO.N,Net-(R8-Pad1)*%
X144160000Y-68000000D03*
%TD*%
%TO.P,R10,2*%
%TO.N,Net-(D4-Pad2)*%
X157160000Y-68580000D03*
D13*
%TO.P,R10,1*%
%TO.N,/CH0*%
X147000000Y-68580000D03*
%TD*%
D12*
%TO.P,U1,1*%
%TO.N,Net-(U1-Pad1)*%
X130000000Y-80000000D03*
D17*
%TO.P,U1,5*%
%TO.N,Net-(U1-Pad5)*%
X137620000Y-87620000D03*
%TO.P,U1,2*%
%TO.N,Net-(C1-Pad2)*%
X130000000Y-82540000D03*
%TO.P,U1,6*%
%TO.N,/CH0*%
X137620000Y-85080000D03*
%TO.P,U1,3*%
%TO.N,Net-(C1-Pad1)*%
X130000000Y-85080000D03*
%TO.P,U1,7*%
%TO.N,+5V*%
X137620000Y-82540000D03*
%TO.P,U1,4*%
%TO.N,GND*%
X130000000Y-87620000D03*
%TO.P,U1,8*%
%TO.N,Net-(U1-Pad8)*%
X137620000Y-80000000D03*
%TD*%
%TO.P,U2,8*%
%TO.N,Net-(U2-Pad8)*%
X148620000Y-91000000D03*
%TO.P,U2,4*%
%TO.N,GND*%
X141000000Y-98620000D03*
%TO.P,U2,7*%
%TO.N,+5V*%
X148620000Y-93540000D03*
%TO.P,U2,3*%
%TO.N,Net-(R8-Pad1)*%
X141000000Y-96080000D03*
%TO.P,U2,6*%
%TO.N,/CH1*%
X148620000Y-96080000D03*
%TO.P,U2,2*%
%TO.N,GND*%
X141000000Y-93540000D03*
%TO.P,U2,5*%
%TO.N,Net-(U2-Pad5)*%
X148620000Y-98620000D03*
D12*
%TO.P,U2,1*%
%TO.N,Net-(U2-Pad1)*%
X141000000Y-91000000D03*
%TD*%
%TO.P,U3,1*%
%TO.N,/CH0*%
X130000000Y-93000000D03*
D17*
%TO.P,U3,9*%
%TO.N,GND*%
X137620000Y-110780000D03*
%TO.P,U3,2*%
%TO.N,/CH1*%
X130000000Y-95540000D03*
%TO.P,U3,10*%
%TO.N,/ADC_CS*%
X137620000Y-108240000D03*
%TO.P,U3,3*%
%TO.N,/CH2*%
X130000000Y-98080000D03*
%TO.P,U3,11*%
%TO.N,/ADC_Din*%
X137620000Y-105700000D03*
%TO.P,U3,4*%
%TO.N,/CH3*%
X130000000Y-100620000D03*
%TO.P,U3,12*%
%TO.N,/ADC_Dout*%
X137620000Y-103160000D03*
%TO.P,U3,5*%
%TO.N,/CH4*%
X130000000Y-103160000D03*
%TO.P,U3,13*%
%TO.N,/ADC_CLK*%
X137620000Y-100620000D03*
%TO.P,U3,6*%
%TO.N,/CH5*%
X130000000Y-105700000D03*
%TO.P,U3,14*%
%TO.N,GND*%
X137620000Y-98080000D03*
%TO.P,U3,7*%
%TO.N,/CH6*%
X130000000Y-108240000D03*
%TO.P,U3,15*%
%TO.N,+5V*%
X137620000Y-95540000D03*
%TO.P,U3,8*%
%TO.N,/CH7*%
X130000000Y-110780000D03*
%TO.P,U3,16*%
%TO.N,+5V*%
X137620000Y-93000000D03*
%TD*%
D18*
%TO.N,Net-(C1-Pad1)*%
X157322501Y-70962501D03*
%TO.N,/ADC_CLK*%
X141950000Y-100620000D03*
%TO.N,Net-(R8-Pad1)*%
X143510000Y-101600000D03*
%TD*%
D19*
%TO.N,Net-(C1-Pad1)*%
X120000000Y-79000000D02*
X119000000Y-80000000D01*
X120000000Y-73000000D02*
X120000000Y-79000000D01*
X131421409Y-68624999D02*
X124375001Y-68624999D01*
X132646410Y-69850000D02*
X131421409Y-68624999D01*
X143975002Y-69850000D02*
X132646410Y-69850000D01*
X124375001Y-68624999D02*
X120000000Y-73000000D01*
X147410011Y-67325009D02*
X146499993Y-67325009D01*
X148125001Y-68039999D02*
X147410011Y-67325009D01*
X151889999Y-74175001D02*
X148125001Y-70410003D01*
X154110001Y-74175001D02*
X151889999Y-74175001D01*
X158285001Y-70000001D02*
X157322501Y-70962501D01*
X158285001Y-67929997D02*
X158285001Y-70000001D01*
X146499993Y-67325009D02*
X143975002Y-69850000D01*
X148125001Y-70410003D02*
X148125001Y-68039999D01*
X158859999Y-67354999D02*
X158285001Y-67929997D01*
X166414999Y-67354999D02*
X158859999Y-67354999D01*
X167640000Y-68580000D02*
X166414999Y-67354999D01*
X157322501Y-70962501D02*
X154110001Y-74175001D01*
X128868630Y-85080000D02*
X123798630Y-80010000D01*
X130000000Y-85080000D02*
X128868630Y-85080000D01*
X119010000Y-80010000D02*
X119000000Y-80000000D01*
X123798630Y-80010000D02*
X119010000Y-80010000D01*
%TO.N,Net-(C1-Pad2)*%
X125000000Y-73000000D02*
X126000000Y-74000000D01*
X122500000Y-73000000D02*
X125000000Y-73000000D01*
X126000000Y-79380000D02*
X126620000Y-80000000D01*
X126000000Y-74000000D02*
X126000000Y-79380000D01*
X129160000Y-82540000D02*
X130000000Y-82540000D01*
X126620000Y-80000000D02*
X129160000Y-82540000D01*
X164700001Y-79874999D02*
X167620000Y-82794998D01*
X158774999Y-86390003D02*
X158774999Y-84719999D01*
X157040001Y-88125001D02*
X158774999Y-86390003D01*
X155959999Y-88125001D02*
X157040001Y-88125001D01*
X155374999Y-87540001D02*
X155959999Y-88125001D01*
X158774999Y-84719999D02*
X163619999Y-79874999D01*
X151863590Y-83000000D02*
X155374999Y-86511409D01*
X167620000Y-82794998D02*
X167620000Y-87000000D01*
X163619999Y-79874999D02*
X164700001Y-79874999D01*
X155374999Y-86511409D02*
X155374999Y-87540001D01*
X151160000Y-83000000D02*
X151863590Y-83000000D01*
%TO.N,Net-(C2-Pad1)*%
X151000000Y-105160000D02*
X151160000Y-105000000D01*
X151000000Y-111000000D02*
X151000000Y-105160000D01*
X151160000Y-99840000D02*
X152000000Y-99000000D01*
X151160000Y-105000000D02*
X151160000Y-99840000D01*
X154000000Y-97000000D02*
X154000000Y-87000000D01*
X152000000Y-99000000D02*
X154000000Y-97000000D01*
%TO.N,GND*%
X132010000Y-69850000D02*
X136160000Y-74000000D01*
X128270000Y-69850000D02*
X132010000Y-69850000D01*
X136160000Y-74000000D02*
X139000000Y-74000000D01*
X125730000Y-92710000D02*
X123190000Y-92710000D01*
X125174999Y-108505001D02*
X125730000Y-107950000D01*
X125174999Y-100885001D02*
X125730000Y-100330000D01*
X153000000Y-75540000D02*
X163000000Y-75540000D01*
X138965001Y-112125001D02*
X137620000Y-110780000D01*
X161160000Y-111000000D02*
X160034999Y-112125001D01*
X140460000Y-98080000D02*
X141000000Y-98620000D01*
X137620000Y-98080000D02*
X140460000Y-98080000D01*
X127434999Y-102034999D02*
X125730000Y-100330000D01*
X133665001Y-102034999D02*
X127434999Y-102034999D01*
X137620000Y-98080000D02*
X133665001Y-102034999D01*
X156500000Y-87000000D02*
X152400000Y-82900000D01*
X152400000Y-76140000D02*
X153000000Y-75540000D01*
X152400000Y-82900000D02*
X152400000Y-76140000D01*
X139000000Y-74000000D02*
X140414294Y-72585706D01*
X152365002Y-75540000D02*
X153000000Y-75540000D01*
X149410708Y-72585706D02*
X152365002Y-75540000D01*
X140414294Y-72585706D02*
X149410708Y-72585706D01*
X125994998Y-87620000D02*
X130000000Y-87620000D01*
X124554999Y-89059999D02*
X125994998Y-87620000D01*
X124554999Y-91534999D02*
X124554999Y-89059999D01*
X125730000Y-92710000D02*
X124554999Y-91534999D01*
X148131409Y-97205001D02*
X146716410Y-98620000D01*
X146716410Y-98620000D02*
X141000000Y-98620000D01*
X149745001Y-96620001D02*
X149160001Y-97205001D01*
X149745001Y-95539999D02*
X149745001Y-96620001D01*
X149160001Y-94954999D02*
X149745001Y-95539999D01*
X142414999Y-94954999D02*
X149160001Y-94954999D01*
X149160001Y-97205001D02*
X148131409Y-97205001D01*
X141000000Y-93540000D02*
X142414999Y-94954999D01*
X160034999Y-112125001D02*
X138965001Y-112125001D01*
X126905001Y-116745001D02*
X125730000Y-115570000D01*
X133444999Y-116745001D02*
X126905001Y-116745001D01*
X134620000Y-115570000D02*
X133444999Y-116745001D01*
X166275001Y-111104001D02*
X166275001Y-109975999D01*
X165194999Y-109314999D02*
X166370000Y-110490000D01*
X167545001Y-103906407D02*
X165194999Y-106256409D01*
X167545001Y-98495999D02*
X167545001Y-103906407D01*
X165194999Y-106256409D02*
X165194999Y-109314999D01*
X166934001Y-97884999D02*
X167545001Y-98495999D01*
X165805999Y-97884999D02*
X166934001Y-97884999D01*
X161160000Y-102530998D02*
X165805999Y-97884999D01*
X161160000Y-111000000D02*
X161160000Y-102530998D01*
X120744999Y-106585001D02*
X121920000Y-105410000D01*
X120744999Y-109125001D02*
X120744999Y-106585001D01*
X119380000Y-110490000D02*
X120744999Y-109125001D01*
X120555001Y-101505001D02*
X119380000Y-100330000D01*
X120555001Y-104045001D02*
X120555001Y-101505001D01*
X121920000Y-105410000D02*
X120555001Y-104045001D01*
X119380000Y-100330000D02*
X118110000Y-99060000D01*
X118110000Y-93980000D02*
X119380000Y-92710000D01*
X118110000Y-99060000D02*
X118110000Y-93980000D01*
X118204999Y-91534999D02*
X119380000Y-92710000D01*
X118204999Y-84525999D02*
X118204999Y-91534999D01*
X118815999Y-83914999D02*
X118204999Y-84525999D01*
X120744999Y-83914999D02*
X118815999Y-83914999D01*
X121920000Y-85090000D02*
X120744999Y-83914999D01*
X121920000Y-85090000D02*
X123190000Y-85090000D01*
X125720000Y-87620000D02*
X125994998Y-87620000D01*
X123190000Y-85090000D02*
X125720000Y-87620000D01*
X120555001Y-99154999D02*
X119380000Y-100330000D01*
X124554999Y-99154999D02*
X120555001Y-99154999D01*
X125730000Y-100330000D02*
X124554999Y-99154999D01*
X124460000Y-107950000D02*
X121920000Y-105410000D01*
X125730000Y-107950000D02*
X124460000Y-107950000D01*
%TO.N,Net-(D1-Pad1)*%
X160000000Y-85160000D02*
X164160000Y-81000000D01*
X160000000Y-87000000D02*
X160000000Y-85160000D01*
X168910000Y-105410000D02*
X166370000Y-107950000D01*
X168910000Y-92984998D02*
X168910000Y-105410000D01*
X162925002Y-87000000D02*
X168910000Y-92984998D01*
X160000000Y-87000000D02*
X162925002Y-87000000D01*
%TO.N,+5V*%
X141000000Y-88488630D02*
X141000000Y-83000000D01*
X137620000Y-91868630D02*
X141000000Y-88488630D01*
X137620000Y-93000000D02*
X137620000Y-91868630D01*
X138080000Y-83000000D02*
X137620000Y-82540000D01*
X141000000Y-83000000D02*
X138080000Y-83000000D01*
X143568630Y-88488630D02*
X148620000Y-93540000D01*
X141000000Y-88488630D02*
X143568630Y-88488630D01*
X151460000Y-93540000D02*
X152000000Y-93000000D01*
X148620000Y-93540000D02*
X151460000Y-93540000D01*
X137620000Y-93000000D02*
X137620000Y-95540000D01*
X119380000Y-115570000D02*
X119380000Y-113030000D01*
%TO.N,Net-(D4-Pad2)*%
X154990001Y-66410001D02*
X157160000Y-68580000D01*
X129169999Y-66410001D02*
X154990001Y-66410001D01*
X128270000Y-67310000D02*
X129169999Y-66410001D01*
%TO.N,/ADC_CLK*%
X137620000Y-100620000D02*
X141950000Y-100620000D01*
X141950000Y-100620000D02*
X141950000Y-100620000D01*
%TO.N,/CH1*%
X153000000Y-71900000D02*
X153000000Y-73000000D01*
X147974999Y-66874999D02*
X153000000Y-71900000D01*
X135125001Y-66874999D02*
X147974999Y-66874999D01*
X134000000Y-68000000D02*
X135125001Y-66874999D01*
X131414999Y-96954999D02*
X130000000Y-95540000D01*
X139079999Y-97205001D02*
X138829997Y-96954999D01*
X147494999Y-97205001D02*
X139079999Y-97205001D01*
X138829997Y-96954999D02*
X131414999Y-96954999D01*
X148620000Y-96080000D02*
X147494999Y-97205001D01*
%TO.N,/CH2*%
X126905001Y-94985001D02*
X130000000Y-98080000D01*
X126905001Y-91345001D02*
X126905001Y-94985001D01*
X125730000Y-90170000D02*
X126905001Y-91345001D01*
%TO.N,/CH3*%
X128560000Y-100620000D02*
X125730000Y-97790000D01*
X130000000Y-100620000D02*
X128560000Y-100620000D01*
%TO.N,/CH4*%
X127750000Y-105410000D02*
X130000000Y-103160000D01*
X125730000Y-105410000D02*
X127750000Y-105410000D01*
%TO.N,/CH5*%
X126905001Y-108794999D02*
X130000000Y-105700000D01*
X126905001Y-111854999D02*
X126905001Y-108794999D01*
X125730000Y-113030000D02*
X126905001Y-111854999D01*
%TO.N,/CH7*%
X132080000Y-112860000D02*
X130000000Y-110780000D01*
X132080000Y-115570000D02*
X132080000Y-112860000D01*
%TO.N,/Dir+*%
X165390000Y-93000000D02*
X166370000Y-93980000D01*
X162160000Y-93000000D02*
X165390000Y-93000000D01*
%TO.N,/DirInput*%
X163890000Y-99000000D02*
X166370000Y-96520000D01*
X162160000Y-99000000D02*
X163890000Y-99000000D01*
%TO.N,/Dir-*%
X165564999Y-99865001D02*
X166370000Y-99060000D01*
X149160000Y-88494998D02*
X153549990Y-92884988D01*
X137079999Y-109654999D02*
X136494999Y-110239999D01*
X153549990Y-92884988D02*
X153549990Y-95785008D01*
X149160000Y-74000000D02*
X149160000Y-88494998D01*
X153549990Y-95785008D02*
X139679999Y-109654999D01*
X136494999Y-111320001D02*
X137750009Y-112575011D01*
X139679999Y-109654999D02*
X137079999Y-109654999D01*
X136494999Y-110239999D02*
X136494999Y-111320001D01*
X163924999Y-106889999D02*
X165564999Y-105249999D01*
X165564999Y-105249999D02*
X165564999Y-99865001D01*
X161249991Y-112575011D02*
X163924999Y-109900003D01*
X163924999Y-109900003D02*
X163924999Y-106889999D01*
X137750009Y-112575011D02*
X161249991Y-112575011D01*
%TO.N,Net-(R8-Pad1)*%
X141000000Y-105000000D02*
X143510000Y-102490000D01*
X143510000Y-102490000D02*
X143510000Y-101600000D01*
X143510000Y-101600000D02*
X143510000Y-101600000D01*
%TO.N,/CH0*%
X130000000Y-92700000D02*
X137620000Y-85080000D01*
X130000000Y-93000000D02*
X130000000Y-92700000D01*
%TD*%
M02*
