%TF.GenerationSoftware,KiCad,Pcbnew,5.1.10*%
%TF.CreationDate,2021-06-24T22:29:26-07:00*%
%TF.ProjectId,weatherstation,77656174-6865-4727-9374-6174696f6e2e,rev?*%
%TF.SameCoordinates,Original*%
%TF.FileFunction,Soldermask,Bot*%
%TF.FilePolarity,Negative*%
%FSLAX46Y46*%
G04 Gerber Fmt 4.6, Leading zero omitted, Abs format (unit mm)*
G04 Created by KiCad (PCBNEW 5.1.10) date 2021-06-24 22:29:26*
%MOMM*%
%LPD*%
G01*
G04 APERTURE LIST*
%ADD10R,1.700000X1.700000*%
%ADD11O,1.700000X1.700000*%
%ADD12R,1.600000X1.600000*%
%ADD13C,1.600000*%
%ADD14R,1.800000X1.800000*%
%ADD15O,1.800000X1.800000*%
%ADD16C,1.800000*%
%ADD17O,1.600000X1.600000*%
G04 APERTURE END LIST*
D10*
%TO.C,J1*%
X121920000Y-115570000D03*
D11*
X119380000Y-115570000D03*
X121920000Y-113030000D03*
X119380000Y-113030000D03*
X121920000Y-110490000D03*
X119380000Y-110490000D03*
X121920000Y-107950000D03*
X119380000Y-107950000D03*
X121920000Y-105410000D03*
X119380000Y-105410000D03*
X121920000Y-102870000D03*
X119380000Y-102870000D03*
X121920000Y-100330000D03*
X119380000Y-100330000D03*
X121920000Y-97790000D03*
X119380000Y-97790000D03*
X121920000Y-95250000D03*
X119380000Y-95250000D03*
X121920000Y-92710000D03*
X119380000Y-92710000D03*
X121920000Y-90170000D03*
X119380000Y-90170000D03*
X121920000Y-87630000D03*
X119380000Y-87630000D03*
X121920000Y-85090000D03*
X119380000Y-85090000D03*
%TD*%
D12*
%TO.C,C1*%
X120000000Y-73000000D03*
D13*
X122500000Y-73000000D03*
%TD*%
%TO.C,C2*%
X154000000Y-87000000D03*
X156500000Y-87000000D03*
%TD*%
D14*
%TO.C,D1*%
X160000000Y-87000000D03*
D15*
X167620000Y-87000000D03*
%TD*%
D14*
%TO.C,D2*%
X160020000Y-68580000D03*
D15*
X167640000Y-68580000D03*
%TD*%
%TO.C,D3*%
X126620000Y-80000000D03*
D14*
X119000000Y-80000000D03*
%TD*%
%TO.C,D4*%
X128270000Y-69850000D03*
D16*
X128270000Y-67310000D03*
%TD*%
D11*
%TO.C,J2*%
X166370000Y-110490000D03*
D10*
X166370000Y-107950000D03*
%TD*%
%TO.C,J3*%
X153000000Y-73000000D03*
D11*
X153000000Y-75540000D03*
%TD*%
%TO.C,J4*%
X125730000Y-92710000D03*
D10*
X125730000Y-90170000D03*
%TD*%
%TO.C,J5*%
X125730000Y-97790000D03*
D11*
X125730000Y-100330000D03*
%TD*%
D10*
%TO.C,J6*%
X125730000Y-105410000D03*
D11*
X125730000Y-107950000D03*
%TD*%
%TO.C,J7*%
X125730000Y-115570000D03*
D10*
X125730000Y-113030000D03*
%TD*%
%TO.C,J8*%
X163000000Y-73000000D03*
D11*
X163000000Y-75540000D03*
%TD*%
%TO.C,J9*%
X134620000Y-115570000D03*
D10*
X132080000Y-115570000D03*
%TD*%
%TO.C,J10*%
X166370000Y-93980000D03*
D11*
X166370000Y-96520000D03*
X166370000Y-99060000D03*
%TD*%
D13*
%TO.C,R1*%
X154000000Y-81000000D03*
D17*
X164160000Y-81000000D03*
%TD*%
%TO.C,R2*%
X162160000Y-93000000D03*
D13*
X152000000Y-93000000D03*
%TD*%
D17*
%TO.C,R3*%
X162160000Y-99000000D03*
D13*
X152000000Y-99000000D03*
%TD*%
%TO.C,R4*%
X139000000Y-74000000D03*
D17*
X149160000Y-74000000D03*
%TD*%
D13*
%TO.C,R5*%
X141000000Y-83000000D03*
D17*
X151160000Y-83000000D03*
%TD*%
%TO.C,R6*%
X136160000Y-74000000D03*
D13*
X126000000Y-74000000D03*
%TD*%
%TO.C,R7*%
X151000000Y-111000000D03*
D17*
X161160000Y-111000000D03*
%TD*%
%TO.C,R8*%
X151160000Y-105000000D03*
D13*
X141000000Y-105000000D03*
%TD*%
%TO.C,R9*%
X134000000Y-68000000D03*
D17*
X144160000Y-68000000D03*
%TD*%
%TO.C,R10*%
X157160000Y-68580000D03*
D13*
X147000000Y-68580000D03*
%TD*%
D12*
%TO.C,U1*%
X130000000Y-80000000D03*
D17*
X137620000Y-87620000D03*
X130000000Y-82540000D03*
X137620000Y-85080000D03*
X130000000Y-85080000D03*
X137620000Y-82540000D03*
X130000000Y-87620000D03*
X137620000Y-80000000D03*
%TD*%
%TO.C,U2*%
X148620000Y-91000000D03*
X141000000Y-98620000D03*
X148620000Y-93540000D03*
X141000000Y-96080000D03*
X148620000Y-96080000D03*
X141000000Y-93540000D03*
X148620000Y-98620000D03*
D12*
X141000000Y-91000000D03*
%TD*%
%TO.C,U3*%
X130000000Y-93000000D03*
D17*
X137620000Y-110780000D03*
X130000000Y-95540000D03*
X137620000Y-108240000D03*
X130000000Y-98080000D03*
X137620000Y-105700000D03*
X130000000Y-100620000D03*
X137620000Y-103160000D03*
X130000000Y-103160000D03*
X137620000Y-100620000D03*
X130000000Y-105700000D03*
X137620000Y-98080000D03*
X130000000Y-108240000D03*
X137620000Y-95540000D03*
X130000000Y-110780000D03*
X137620000Y-93000000D03*
%TD*%
M02*
